<svg xmlns="http://www.w3.org/2000/svg" width="24" height="24" viewBox="0 0 24 24">
  <path fill="#939BA1" fill-rule="nonzero" d="M6,5.99539757 L6,14.0046024 C6,14.5443356 6.44661595,15 6.99754465,15 L15,15 L19,18 L19,5.99539757 C19,5.4556644 18.5529553,5 18.0014977,5 L6.99850233,5 C6.44748943,5 6,5.44565467 6,5.99539757 Z M6.99754465,17 C5.34334703,17 4,15.6502334 4,14.0046024 L4,5.99539757 C4,4.33970333 5.34429545,3 6.99850233,3 L18.0014977,3 C19.6557893,3 21,4.34933905 21,5.99539757 L21,18 C21,19.7818097 18.8457162,20.6741433 17.5857864,19.4142136 L14.1715729,17 L6.99754465,17 Z M10,11.5 C10.8284271,11.5 11.5,10.8284271 11.5,10 C11.5,9.17157288 10.8284271,8.5 10,8.5 C9.17157288,8.5 8.5,9.17157288 8.5,10 C8.5,10.8284271 9.17157288,11.5 10,11.5 Z M15,11.5 C15.8284271,11.5 16.5,10.8284271 16.5,10 C16.5,9.17157288 15.8284271,8.5 15,8.5 C14.1715729,8.5 13.5,9.17157288 13.5,10 C13.5,10.8284271 14.1715729,11.5 15,11.5 Z"/>
</svg>
