<svg xmlns="http://www.w3.org/2000/svg" width="24" height="24" viewBox="0 0 24 24">
  <g fill="#4360DF" fill-rule="evenodd">
    <path d="M6 15L13 15 13 15C14.6568542 15 16 16.3431458 16 18L16 20.7000008 3 20.7000008 3 18 3 18C3 16.3431458 4.34314575 15 6 15zM9.54545455 10.5454545C10.8006472 10.5454545 11.8181818 9.52791989 11.8181818 8.27272727 11.8181818 7.01753466 10.8006472 6 9.54545455 6 8.29026193 6 7.27272727 7.01753466 7.27272727 8.27272727 7.27272727 9.52791989 8.29026193 10.5454545 9.54545455 10.5454545z" opacity=".12"/>
    <path fill-rule="nonzero" d="M17.0909091,19.7272727 L17.0909091,18.0909091 C17.0909091,15.731147 15.1779439,13.8181818 12.8181818,13.8181818 L6.27272727,13.8181818 C3.91296516,13.8181818 2,15.731147 2,18.0909091 L2,19.7272727 C2,20.2795575 2.44771525,20.7272727 3,20.7272727 C3.55228475,20.7272727 4,20.2795575 4,19.7272727 L4,18.0909091 C4,16.8357165 5.01753466,15.8181818 6.27272727,15.8181818 L12.8181818,15.8181818 C14.0733744,15.8181818 15.0909091,16.8357165 15.0909091,18.0909091 L15.0909091,19.7272727 C15.0909091,20.2795575 15.5386243,20.7272727 16.0909091,20.7272727 C16.6431938,20.7272727 17.0909091,20.2795575 17.0909091,19.7272727 Z M9.54545455,12.5454545 C7.18569243,12.5454545 5.27272727,10.6324894 5.27272727,8.27272727 C5.27272727,5.91296516 7.18569243,4 9.54545455,4 C11.9052167,4 13.8181818,5.91296516 13.8181818,8.27272727 C13.8181818,10.6324894 11.9052167,12.5454545 9.54545455,12.5454545 Z M9.54545455,10.5454545 C10.8006472,10.5454545 11.8181818,9.52791989 11.8181818,8.27272727 C11.8181818,7.01753466 10.8006472,6 9.54545455,6 C8.29026193,6 7.27272727,7.01753466 7.27272727,8.27272727 C7.27272727,9.52791989 8.29026193,10.5454545 9.54545455,10.5454545 Z M22,19.7272727 L22,18.0909091 C21.9985473,16.1429935 20.6807939,14.4430916 18.7954543,13.9562995 C18.2607068,13.8182285 17.7152797,14.1397983 17.5772086,14.6745457 C17.4391376,15.2092932 17.7607074,15.7547203 18.2954548,15.8927914 C19.298295,16.1517233 19.9992277,17.0559264 20.0000003,18.091655 L20,19.7272727 C20,20.2795575 20.4477153,20.7272727 21,20.7272727 C21.5522847,20.7272727 22,20.2795575 22,19.7272727 Z M15.0246881,6.07511364 C16.0303215,6.33259647 16.7336899,7.23874497 16.7336899,8.27681818 C16.7336899,9.31489139 16.0303215,10.2210399 15.0246881,10.4785227 C14.4896622,10.615511 14.166989,11.1602861 14.3039773,11.6953119 C14.4409655,12.2303378 14.9857406,12.553011 15.5207665,12.4160227 C17.4113573,11.931955 18.7336899,10.2283958 18.7336899,8.27681818 C18.7336899,6.32524054 17.4113573,4.62168136 15.5207665,4.13761364 C14.9857406,4.00062538 14.4409655,4.3232986 14.3039773,4.85832445 C14.166989,5.3933503 14.4896622,5.93812538 15.0246881,6.07511364 Z"/>
  </g>
</svg>
