<svg xmlns="http://www.w3.org/2000/svg" width="24" height="24" viewBox="0 0 24 24">
  <g fill="#4360DF" fill-rule="evenodd">
    <path d="M12,20 C16.418278,20 20,16.418278 20,12 C20,7.581722 16.418278,4 12,4 C7.581722,4 4,7.581722 4,12 C4,16.418278 7.581722,20 12,20 Z" opacity=".12"/>
    <path fill-rule="nonzero" d="M12,22 C6.4771525,22 2,17.5228475 2,12 C2,6.4771525 6.4771525,2 12,2 C17.5228475,2 22,6.4771525 22,12 C22,17.5228475 17.5228475,22 12,22 Z M12,20 C16.418278,20 20,16.418278 20,12 C20,7.581722 16.418278,4 12,4 C7.581722,4 4,7.581722 4,12 C4,16.418278 7.581722,20 12,20 Z M10.8825694,10.8825694 L9.76513883,14.2348612 L13.1174306,13.1174306 L14.2348612,9.76513883 L10.8825694,10.8825694 Z M16.7646833,8.50022777 L14.8566833,14.2242278 C14.7571483,14.5228328 14.5228328,14.7571483 14.2242278,14.8566833 L8.50022777,16.7646833 C7.71846974,17.0252693 6.97473069,16.2815303 7.2353167,15.4997722 L9.1433167,9.77577223 C9.2428517,9.47716724 9.47716724,9.2428517 9.77577223,9.1433167 L15.4997722,7.2353167 C16.2815303,6.97473069 17.0252693,7.71846974 16.7646833,8.50022777 Z"/>
  </g>
</svg>
