<svg xmlns="http://www.w3.org/2000/svg" width="24" height="24" viewBox="0 0 24 24">
  <path fill="" fill-rule="evenodd" d="M11.991,3 C16.968,3 21,7.032 21,12 C21,16.968 16.968,21 11.991,21 C7.023,21 3,16.968 3,12 C3,7.032 7.023,3 11.991,3 Z M12,19.2 C15.978,19.2 19.2,15.978 19.2,12 C19.2,8.022 15.978,4.8 12,4.8 C8.022,4.8 4.8,8.022 4.8,12 C4.8,15.978 8.022,19.2 12,19.2 Z M15.15,11.1 C14.403,11.1 13.8,10.497 13.8,9.75 C13.8,9.003 14.403,8.4 15.15,8.4 C15.897,8.4 16.5,9.003 16.5,9.75 C16.5,10.497 15.897,11.1 15.15,11.1 Z M8.85,11.1 C8.103,11.1 7.5,10.497 7.5,9.75 C7.5,9.003 8.103,8.4 8.85,8.4 C9.597,8.4 10.2,9.003 10.2,9.75 C10.2,10.497 9.597,11.1 8.85,11.1 Z M15.4688093,14.5657156 C15.4688093,14.5657156 13.9636364,16.7127275 12,16.7127275 C10.0363636,16.7127275 8.53119066,14.5657156 8.53119066,14.5657156 C7.89684701,13.8749327 8.16592908,13.2763638 9.10951692,13.2763638 L14.8904831,13.2763638 C15.8306042,13.2763638 16.0929964,13.8536263 15.4688093,14.5657156 Z"/>
</svg>
