<svg xmlns="http://www.w3.org/2000/svg" width="24" height="24" viewBox="0 0 24 24">
  <path fill="#939BA1" d="M5,7.00247329 L5,16.9975267 C5,17.544239 5.45078007,18 6.00684547,18 L17.9931545,18 C18.5500512,18 19,17.5511774 19,16.9975267 L19,7.00247329 C19,6.45576096 18.5492199,6 17.9931545,6 L6.00684547,6 C5.44994876,6 5,6.44882258 5,7.00247329 Z M3,7.00247329 C3,5.34227052 4.34735582,4 6.00684547,4 L17.9931545,4 C19.6515811,4 21,5.34898202 21,7.00247329 L21,16.9975267 C21,18.6577295 19.6526442,20 17.9931545,20 L6.00684547,20 C4.34841892,20 3,18.651018 3,16.9975267 L3,7.00247329 Z M5,8 L19,8 L19,10 L5,10 L5,8 Z M15,13.0093689 C15,12.4519098 15.4438648,12 16,12 C16.5522847,12 17,12.4433532 17,13.0093689 L17,14.9906311 C17,15.5480902 16.5561352,16 16,16 C15.4477153,16 15,15.5566468 15,14.9906311 L15,13.0093689 Z"/>
</svg>
