<svg width="16" height="16" viewBox="0 0 16 16" fill="none" xmlns="http://www.w3.org/2000/svg">
<path fill-rule="evenodd" clip-rule="evenodd" d="M4.5 5.75C4.08579 5.75 3.75 6.08579 3.75 6.5V11.5C3.75 11.9142 4.08579 12.25 4.5 12.25H9.5C9.91421 12.25 10.25 11.9142 10.25 11.5V8.70711C10.25 8.5745 10.3027 8.44732 10.3964 8.35355L11.3232 7.42678C11.4807 7.26929 11.75 7.38083 11.75 7.60355V11.5C11.75 12.7426 10.7426 13.75 9.5 13.75H4.5C3.25736 13.75 2.25 12.7426 2.25 11.5V6.5C2.25 5.25736 3.25736 4.25 4.5 4.25H8.39645C8.61917 4.25 8.73071 4.51929 8.57322 4.67678L7.64645 5.60355C7.55268 5.69732 7.4255 5.75 7.29289 5.75H4.5Z" fill="black"/>
<path d="M14.75 2C14.75 1.80811 14.6768 1.61621 14.5303 1.46973C14.3838 1.32324 14.1919 1.25 14 1.25H9C8.58569 1.25 8.25 1.58582 8.25 2C8.25 2.41418 8.58569 2.75 9 2.75H11.7066C11.8848 2.75 11.974 2.96543 11.848 3.09142L6.46973 8.46973C6.17676 8.76257 6.17676 9.23743 6.46973 9.53027C6.76245 9.82324 7.23755 9.82324 7.53027 9.53027L12.9086 4.15197C13.0346 4.02598 13.25 4.11521 13.25 4.29339V7C13.25 7.41418 13.5859 7.75 14 7.75C14.4141 7.75 14.75 7.41418 14.75 7V2Z" fill="black"/>
</svg>
