<svg width="16" height="16" viewBox="0 0 16 16" fill="none" xmlns="http://www.w3.org/2000/svg">
<path fill-rule="evenodd" clip-rule="evenodd" d="M4.79808 8.99924C3.30984 8.99924 2.01172 9.84928 1.34683 11.101C1.11734 11.5331 1.47549 11.9989 1.9647 11.9989H5.02946C5.44351 11.9989 5.7734 11.6615 5.83386 11.2519C5.90556 10.7662 6.04582 10.3034 6.24425 9.87395C6.3671 9.6081 6.27341 9.27924 5.99496 9.18851C5.61764 9.06555 5.21547 8.99924 4.79808 8.99924ZM4.8345 7.99937C3.72993 7.99937 2.8345 7.10405 2.8345 5.99962C2.8345 4.89519 3.72993 3.99988 4.8345 3.99988C5.93907 3.99988 6.8345 4.89519 6.8345 5.99962C6.8345 7.10405 5.93907 7.99937 4.8345 7.99937ZM11.1143 6.99949C10.0097 6.99949 9.11427 6.10418 9.11427 4.99975C9.11427 3.89532 10.0097 3 11.1143 3C12.2188 3 13.1143 3.89532 13.1143 4.99975C13.1143 6.10418 12.2188 6.99949 11.1143 6.99949ZM8.15292 11.9989C7.60042 11.9989 7.13994 11.5441 7.27438 11.0082C7.70833 9.2784 9.24895 7.99939 11.0762 7.99939C12.9071 7.99939 14.4452 9.27832 14.8782 11.0081C15.0124 11.5441 14.5519 11.9989 13.9994 11.9989H8.15292Z" fill="black"/>
</svg>
