<svg width="16" height="16" viewBox="0 0 16 16" fill="none" xmlns="http://www.w3.org/2000/svg">
<path d="M8.875 3C8.875 2.51675 8.48325 2.125 8 2.125C7.51675 2.125 7.125 2.51675 7.125 3V11.0976L5.06946 9.33567C4.70255 9.02117 4.15016 9.06366 3.83567 9.43057C3.52117 9.79748 3.56366 10.3499 3.93057 10.6644L7.42712 13.6614C7.57031 13.7855 7.75421 13.8639 7.95611 13.8739C7.98615 13.8754 8.01625 13.8754 8.04628 13.8738C8.23907 13.8638 8.41535 13.7913 8.55528 13.6763C8.56004 13.6724 8.56476 13.6684 8.56946 13.6644L12.0695 10.6644C12.4364 10.3499 12.4789 9.79748 12.1644 9.43057C11.8499 9.06366 11.2975 9.02117 10.9306 9.33567L8.875 11.0976V3Z" fill="black"/>
</svg>
