<svg width="16" height="16" viewBox="0 0 16 16" fill="none" xmlns="http://www.w3.org/2000/svg">
<path fill-rule="evenodd" clip-rule="evenodd" d="M12.1667 3C11.7033 3 11.3334 3.35631 11.3334 3.79585V10.1995C11.3334 10.631 11.7065 10.9953 12.1667 10.9953C12.6302 10.9953 13.0001 10.639 13.0001 10.1995V3.79585C13.0001 3.36432 12.627 3 12.1667 3ZM3 6.16622C3 5.92077 3.19813 5.67629 3.45222 5.61794L9.95519 4.12462C10.2049 4.06726 10.4074 4.21886 10.4074 4.46825V9.52683C10.4074 9.77397 10.2093 9.92882 9.95519 9.87047L3.45222 8.37715C3.20246 8.3198 3 8.07309 3 7.82886V6.16622ZM5.12974 9.76193V10.3334C5.12974 11.0728 5.74984 11.6674 6.51863 11.6674C7.26084 11.6674 7.86969 11.1115 7.90512 10.4046V10.4039L9.25291 10.7157C9.16736 11.9185 8.04964 13 6.51863 13C4.98451 13 3.74086 11.8104 3.74086 10.3334V9.44065L5.12974 9.76193Z" fill="black"/>
</svg>
