<svg width="16" height="16" viewBox="0 0 16 16" fill="none" xmlns="http://www.w3.org/2000/svg">
<path fill-rule="evenodd" clip-rule="evenodd" d="M10.7803 3C10.9365 3.00015 11.0809 3.07955 11.159 3.20833L13.9414 7.79167C14.0196 7.92058 14.0196 8.07942 13.9414 8.20833L11.159 12.7917C11.0809 12.9205 10.9365 12.9998 10.7803 13H5.2198C5.06354 12.9998 4.91921 12.9205 4.84108 12.7917L2.05866 8.20833C1.98045 8.07942 1.98045 7.92058 2.05866 7.79167L4.84108 3.20833C4.91921 3.07955 5.06354 3.00015 5.2198 3H10.7803ZM6 8C6 9.10457 6.89543 10 8 10C8.53043 10 9.03914 9.78929 9.41421 9.41421C9.78929 9.03914 10 8.53043 10 8C10 6.89543 9.10457 6 8 6C6.89543 6 6 6.89543 6 8Z" fill="black"/>
</svg>
