<svg width="16" height="16" viewBox="0 0 16 16" fill="none" xmlns="http://www.w3.org/2000/svg">
<path fill-rule="evenodd" clip-rule="evenodd" d="M8 2C4.68629 2 2 4.68629 2 8V12C2 13.1046 2.89543 14 4 14H8C11.3137 14 14 11.3137 14 8C14 4.68629 11.3137 2 8 2ZM7.63838 7.63711L7.63837 7.63711C7.21874 7.5919 6.7991 7.54669 6.28312 7.57649C6.02723 7.59086 5.77312 7.62795 5.52376 7.68732C5.67605 5.77935 7.02638 4.11029 8.8626 4.00419C9.98943 3.93917 11.1157 4.63489 11.1768 5.76431C11.2369 6.87437 10.3903 7.61715 8.99295 7.69776C8.47727 7.72748 8.05782 7.68229 7.63838 7.63711ZM6.21975 11.9961C5.14026 12.057 4.06146 11.4057 4.00288 10.3489C3.94527 9.30994 4.75627 8.61492 6.09495 8.53946C6.58891 8.51162 6.99073 8.55392 7.39253 8.59622L7.39254 8.59622L7.39256 8.59622C7.79454 8.63853 8.19649 8.68085 8.69067 8.65293C8.93568 8.6395 9.17906 8.60479 9.4181 8.5492C9.27247 10.3348 7.97892 11.8969 6.21975 11.9961Z" fill="black"/>
</svg>
