<svg width="64" height="64" viewBox="0 0 64 64" fill="none" xmlns="http://www.w3.org/2000/svg">
<path fill-rule="evenodd" clip-rule="evenodd" d="M32 57C43.9849 57 54 48.5666 56.4348 37.3104C56.8707 35.2954 54.898 33.7413 52.8441 33.9201C52.2364 33.973 51.6213 34 51 34C39.402 34 30 24.598 30 13C30 12.3787 30.027 11.7636 30.0799 11.1558C30.2587 9.10201 28.7046 7.1293 26.6896 7.56516C15.4334 9.99996 7 20.0151 7 32C7 45.8071 18.1929 57 32 57ZM51 32C52.6564 32 54.2622 31.7883 55.7923 31.3907C56.2883 31.2619 56.5268 30.712 56.2604 30.2743C55.6851 29.3292 54.8263 28.2039 53.7315 26.9266C51.5421 24.3722 48.603 21.4314 45.5858 18.4142C42.5686 15.397 39.6278 12.4579 37.0734 10.2685C35.7961 9.1737 34.6708 8.31492 33.7257 7.73965C33.288 7.4732 32.7381 7.71168 32.6093 8.20766C32.2117 9.73781 32 11.3436 32 13C32 23.4934 40.5066 32 51 32ZM32 59C46.9117 59 59 46.9117 59 32C59 29 53 23 47 17C41 11 35 5 32 5C17.0883 5 5 17.0883 5 32C5 46.9117 17.0883 59 32 59ZM22.6947 47.7193C25.0714 45.4242 28.3594 44 32 44C35.6406 44 38.9286 45.4242 41.3053 47.7193C41.7026 48.103 42.3357 48.0919 42.7193 47.6946C43.103 47.2974 43.0919 46.6643 42.6947 46.2806C39.9529 43.633 36.1699 42 32 42C27.8302 42 24.0471 43.633 21.3053 46.2807C20.9081 46.6643 20.897 47.2974 21.2807 47.6947C21.6643 48.0919 22.2974 48.103 22.6947 47.7193Z" fill="#939BA1"/>
</svg>
