<svg xmlns="http://www.w3.org/2000/svg" width="24" height="24" viewBox="0 0 24 24">
    <g fill="none" fill-rule="evenodd">
        <path fill="" fill-rule="nonzero" d="M16.09 19.727v-1.636a4.273 4.273 0 0 0-4.272-4.273H5.273A4.273 4.273 0 0 0 1 18.091v1.636a1 1 0 1 0 2 0v-1.636a2.273 2.273 0 0 1 2.273-2.273h6.545a2.273 2.273 0 0 1 2.273 2.273v1.636a1 1 0 1 0 2 0zm-7.545-9.182a2.273 2.273 0 1 0 0-4.545 2.273 2.273 0 0 0 0 4.545zM18 11V9.003c0-.554.647-1.003.926-1.003.276 0 .989.438.989 1.003V11h1.78a.999.999 0 0 1 1.002 1c0 .552-.438 1-1.003 1h-1.78v2c0 .554-.71 1.003-.988 1.003-.277 0-.926-.438-.926-1.003v-2h-1.997A.999.999 0 0 1 15 12c0-.552.438-1 1.003-1H18zm-9.455 1.545a4.273 4.273 0 1 1 0-8.545 4.273 4.273 0 0 1 0 8.545z"/>
    </g>
</svg>
