<svg xmlns="http://www.w3.org/2000/svg" width="24" height="24" viewBox="0 0 24 24">
  <path fill="" d="M5,16 L5,14 C5,13.4477153 5.44771525,13 6,13 C6.55228475,13 7,13.4477153 7,14 L7,16 L9,16 C9.55228475,16 10,16.4477153 10,17 C10,17.5522847 9.55228475,18 9,18 L7,18 L7,20 C7,20.5522847 6.55228475,21 6,21 C5.44771525,21 5,20.5522847 5,20 L5,18 L3,18 C2.44771525,18 2,17.5522847 2,17 C2,16.4477153 2.44771525,16 3,16 L5,16 Z M11.8292943,17 L18,17 C19.1045695,17 20,16.1045695 20,15 L20,7 C20,5.8954305 19.1045695,5 18,5 L8,5 C6.8954305,5 6,5.8954305 6,7 L6,11.1707057 C5.68722107,11.0601542 5.35063542,11 5,11 C4.64936458,11 4.31277893,11.0601542 4,11.1707057 L4,6.00247329 C4,4.34227052 5.34735582,3 7.00684547,3 L18.9931545,3 C20.6515811,3 22,4.34898202 22,6.00247329 L22,15.9975267 C22,17.6577295 20.6526442,19 18.9931545,19 L11.8292943,19 C11.9398458,18.6872211 12,18.3506354 12,18 C12,17.6493646 11.9398458,17.3127789 11.8292943,17 Z M16,12.0093689 C16,11.4519098 16.4438648,11 17,11 C17.5522847,11 18,11.4433532 18,12.0093689 L18,13.9906311 C18,14.5480902 17.5561352,15 17,15 C16.4477153,15 16,14.5566468 16,13.9906311 L16,12.0093689 Z M6,7 L20,7 L20,9 L6,9 L6,7 Z"/>
</svg>
