<svg xmlns="http://www.w3.org/2000/svg" width="24" height="24" viewBox="0 0 24 24">
  <path fill="" fill-rule="evenodd" d="M10.9497475,12.4485551 L6.71194726,16.6863553 C6.31874965,17.0795529 5.68614017,17.0844427 5.29289322,16.6911958 C4.90236893,16.3006715 4.90394826,15.6659272 5.2977337,15.2721417 L8.82842712,11.7414483 L5.2977337,8.21075488 C4.90453608,7.81755726 4.89964626,7.18494779 5.29289322,6.79170084 C5.68341751,6.40117655 6.31816182,6.40275587 6.71194726,6.79654132 L10.9497475,11.0343415 C11.3429944,11.4275885 11.3402718,12.0580308 10.9497475,12.4485551 Z M12,16 C12,15.4477153 12.4378814,15 13.0029293,15 L17.9970707,15 C18.5509732,15 19,15.4438648 19,16 C19,16.5522847 18.5621186,17 17.9970707,17 L13.0029293,17 C12.4490268,17 12,16.5561352 12,16 Z"/>
</svg>
