<svg xmlns="http://www.w3.org/2000/svg" width="24" height="24" viewBox="0 0 24 24">
  <path fill="" fill-rule="evenodd" d="M9.41584892,10.9442775 L11.9534828,8.40664362 C12.3381446,8.0219819 12.3419071,7.38505436 11.9513828,6.99453007 C11.5581359,6.60128312 10.9286338,6.60306557 10.5392693,6.99243006 L6.29242857,11.2392708 C6.10044245,11.4312569 6.00334006,11.6860836 6.00278587,11.9417518 C6.00030772,12.2007913 6.09809257,12.4549483 6.29242857,12.6492843 L10.5392693,16.896125 C10.923931,17.2807867 11.5608585,17.2845493 11.9513828,16.894025 C12.3446298,16.5007781 12.3428473,15.8712759 11.9534828,15.4819115 L9.41584892,12.9442775 L17.2488785,12.9442775 C17.7886117,12.9442775 18.244276,12.4965623 18.244276,11.9442775 C18.244276,11.3881424 17.7986214,10.9442775 17.2488785,10.9442775 L9.41584892,10.9442775 Z"/>
</svg>
