<svg xmlns="http://www.w3.org/2000/svg" width="24" height="24" viewBox="0 0 24 24">
  <path fill="" fill-rule="evenodd" d="M14.6219757,13 L12.2916499,15.319079 C11.9096557,15.6992296 11.9040341,16.3274522 12.2899218,16.7114775 C12.6784998,17.0981801 13.3022308,17.0947328 13.689073,16.7097577 L17.7083501,12.7098788 C17.877687,12.5413592 17.973062,12.3240904 17.9931567,12.1009557 C18.0275763,11.8114712 17.9320821,11.5099635 17.7083501,11.2873113 L13.689073,7.28743242 C13.3070788,6.90728182 12.6758095,6.90168733 12.2899218,7.28571264 C11.9013437,7.67241531 11.9048078,8.29313599 12.2916499,8.67811112 L14.6247993,11 L6.9955775,11 C6.44483697,11 6,11.4477153 6,12 C6,12.5561352 6.44573523,13 6.9955775,13 L14.6219757,13 Z"/>
</svg>
