<svg xmlns="http://www.w3.org/2000/svg" width="24" height="24" viewBox="0 0 24 24">
  <path fill="" d="M19,8 L19,14 C19,17.86 15.86,21 12,21 C8.14,21 5,17.86 5,14 L5,8 C5,5.24 7.24,3 10,3 C12.76,3 15,5.24 15,8 L15,14 C15,15.66 13.66,17 12,17 C10.34,17 9,15.66 9,14 L9,8 C9,7.44771525 9.44771525,7 10,7 C10.5522847,7 11,7.44771525 11,8 L11,14 C11,14.56 11.44,15 12,15 C12.56,15 13,14.56 13,14 L13,8 C13,6.34 11.66,5 10,5 C8.34,5 7,6.34 7,8 L7,14 C7,16.76 9.24,19 12,19 C14.76,19 17,16.76 17,14 L17,8 C17,7.44771525 17.4477153,7 18,7 C18.5522847,7 19,7.44771525 19,8 Z"/>
</svg>
