<svg xmlns="http://www.w3.org/2000/svg" width="24" height="24" viewBox="0 0 24 24">
  <g fill="" >
    <path d="M5,5 C3.8954305,5 3,5.8954305 3,7 L3,17 C3,18.1045695 3.8954305,19 5,19 L19,19 C20.1045695,19 21,18.1045695 21,17 L21,7 C21,5.8954305 20.1045695,5 19,5 L5,5 Z M5,3 L19,3 C21.209139,3 23,4.790861 23,7 L23,17 C23,19.209139 21.209139,21 19,21 L5,21 C2.790861,21 1,19.209139 1,17 L1,7 C1,4.790861 2.790861,3 5,3 Z"/>
    <path d="M14.6000895,12.9856969 L16.5941105,10.9916759 L16.5857864,10.9833518 L18,9.56913825 L18.0083241,9.57746234 L18.0166482,9.56913825 L19.4308618,10.9833518 L19.4225377,10.9916759 L22.4308618,14 L21.0166482,15.4142136 L18.0083241,12.4058895 L16.0537524,14.3604612 L20.4308618,18.5 L19.0166482,19.9142136 L11.2425833,12.1716302 L3.5,19.9142136 L2.08578644,18.5 L11.0166482,9.56913825 L11.5253666,10.0778566 L14.6000895,12.9856969 Z"/>
  </g>
</svg>
