<svg width="24" height="24" viewBox="0 0 24 24" fill="none" xmlns="http://www.w3.org/2000/svg">
<path d="M3.23178 6.64021C2.92274 6.26936 2.92274 5.73069 3.23178 5.35984L5.73178 2.35984C6.08534 1.93556 6.71591 1.87824 7.14018 2.2318C7.56446 2.58537 7.62179 3.21593 7.26822 3.64021L6.13502 5.00005L16 5.00005C16.0003 5.00005 15.9997 5.00005 16 5.00005C18.7611 5.00047 21 7.23889 21 10C21 10.5523 20.5523 11 20 11C19.4477 11 19 10.5523 19 10C19 8.3432 17.6569 7.00005 16 7.00005C16.0003 7.00005 15.9997 7.00005 16 7.00005H6.13506L7.26822 8.35984C7.62179 8.78412 7.56446 9.41468 7.14018 9.76825C6.71591 10.1218 6.08534 10.0645 5.73178 9.64021L3.23178 6.64021Z" fill="black"/>
<path d="M20.7682 17.3598C21.0773 17.7307 21.0773 18.2694 20.7682 18.6402L18.2682 21.6402C17.9147 22.0645 17.2841 22.1218 16.8598 21.7682C16.4355 21.4147 16.3782 20.7841 16.7318 20.3598L17.865 19H8C7.99974 19 8.00026 19 8 19C5.23893 18.9996 3 16.7612 3 14C3 13.4477 3.44772 13 4 13C4.55228 13 5 13.4477 5 14C5 15.6569 6.34315 17 8 17C7.99967 17 8.00033 17 8 17H17.8649L16.7318 15.6402C16.3782 15.2159 16.4355 14.5854 16.8598 14.2318C17.2841 13.8782 17.9147 13.9356 18.2682 14.3598L20.7682 17.3598Z" fill="black"/>
</svg>
