<svg xmlns="http://www.w3.org/2000/svg" width="24" height="24" viewBox="0 0 24 24">
  <path fill="" d="M5,6.99539757 L5,15.0046024 C5,15.5443356 5.44661595,16 5.99754465,16 L14,16 L18,19 L18,6.99539757 C18,6.4556644 17.5529553,6 17.0014977,6 L5.99850233,6 C5.44748943,6 5,6.44565467 5,6.99539757 Z M5.99754465,18 C4.34334703,18 3,16.6502334 3,15.0046024 L3,6.99539757 C3,5.33970333 4.34429545,4 5.99850233,4 L17.0014977,4 C18.6557893,4 20,5.34933905 20,6.99539757 L20,19 C20,20.7818097 17.8457162,21.6741433 16.5857864,20.4142136 L13.1715729,18 L5.99754465,18 Z M9,12.5 C9.82842712,12.5 10.5,11.8284271 10.5,11 C10.5,10.1715729 9.82842712,9.5 9,9.5 C8.17157288,9.5 7.5,10.1715729 7.5,11 C7.5,11.8284271 8.17157288,12.5 9,12.5 Z M14,12.5 C14.8284271,12.5 15.5,11.8284271 15.5,11 C15.5,10.1715729 14.8284271,9.5 14,9.5 C13.1715729,9.5 12.5,10.1715729 12.5,11 C12.5,11.8284271 13.1715729,12.5 14,12.5 Z"/>
</svg>
