<svg xmlns="http://www.w3.org/2000/svg" width="24" height="24" viewBox="0 0 24 24">
  <path fill="" fill-rule="evenodd" d="M9,7 C9,6.44771525 9.4556644,6 9.99539757,6 L18.0046024,6 C18.5543453,6 19,6.44386482 19,7 C19,7.55228475 18.5443356,8 18.0046024,8 L9.99539757,8 C9.44565467,8 9,7.55613518 9,7 Z M9,12 C9,11.4477153 9.45303631,11 9.99703014,11 L16.0029699,11 C16.5536144,11 17,11.4438648 17,12 C17,12.5522847 16.5469637,13 16.0029699,13 L9.99703014,13 C9.4463856,13 9,12.5561352 9,12 Z M9,17 C9,16.4477153 9.4556644,16 9.99539757,16 L18.0046024,16 C18.5543453,16 19,16.4438648 19,17 C19,17.5522847 18.5443356,18 18.0046024,18 L9.99539757,18 C9.44565467,18 9,17.5561352 9,17 Z M6,8.29999971 C5.28202985,8.29999971 4.70000005,7.71796991 4.70000005,6.99999976 C4.70000005,6.28202961 5.28202985,5.69999981 6,5.69999981 C6.71797015,5.69999981 7.29999995,6.28202961 7.29999995,6.99999976 C7.29999995,7.71796991 6.71797015,8.29999971 6,8.29999971 Z M6,13.2999997 C5.28202985,13.2999997 4.70000005,12.7179699 4.70000005,11.9999998 C4.70000005,11.2820296 5.28202985,10.6999998 6,10.6999998 C6.71797015,10.6999998 7.29999995,11.2820296 7.29999995,11.9999998 C7.29999995,12.7179699 6.71797015,13.2999997 6,13.2999997 Z M6,18.2999997 C5.28202985,18.2999997 4.70000005,17.7179699 4.70000005,16.9999998 C4.70000005,16.2820296 5.28202985,15.6999998 6,15.6999998 C6.71797015,15.6999998 7.29999995,16.2820296 7.29999995,16.9999998 C7.29999995,17.7179699 6.71797015,18.2999997 6,18.2999997 Z"/>
</svg>
