<svg width="24" height="24" viewBox="0 0 24 24" fill="" xmlns="http://www.w3.org/2000/svg">
<path fill-rule="evenodd" clip-rule="evenodd" d="M8 4C6.34315 4 5 5.34315 5 7C5 8.65685 6.34315 10 8 10C9.65685 10 11 8.65685 11 7C11 5.34315 9.65685 4 8 4ZM3 7C3 4.23858 5.23858 2 8 2C10.7614 2 13 4.23858 13 7C13 9.76142 10.7614 12 8 12C5.23858 12 3 9.76142 3 7ZM5 16C3.89543 16 3 16.8954 3 18V20C3 20.5523 2.55228 21 2 21C1.44772 21 1 20.5523 1 20V18C1 15.7909 2.79086 14 5 14H11C13.2091 14 15 15.7909 15 18V20C15 20.5523 14.5523 21 14 21C13.4477 21 13 20.5523 13 20V18C13 16.8954 12.1046 16 11 16H5Z M22.7071 8.29289C23.0976 8.68342 23.0976 9.31658 22.7071 9.70711L18.7071 13.7071C18.3166 14.0976 17.6834 14.0976 17.2929 13.7071L15.2929 11.7071C14.9024 11.3166 14.9024 10.6834 15.2929 10.2929C15.6834 9.90237 16.3166 9.90237 16.7071 10.2929L18 11.5858L21.2929 8.29289C21.6834 7.90237 22.3166 7.90237 22.7071 8.29289Z" fill=""/>
</svg>
