<svg xmlns="http://www.w3.org/2000/svg" width="24" height="24" viewBox="0 0 24 24">
  <path fill="#000000" d="M7.00001034,5 C7.004297,3.34182361 8.34093668,2 10,2 L14,2 C15.6555111,2 16.9973018,3.34290405 16.9999959,5 L18.5454545,5 C19.9047426,5 21,6.12948418 21,7.5 C21,8.87051582 19.9047426,10 18.5454545,10 L5.45454545,10 C4.09525738,10 3,8.87051582 3,7.5 C3,6.12948418 4.09525738,5 5.45454545,5 L7.0000096,5 Z M14.9999879,5 C14.9973085,4.44655807 14.5500233,4 14,4 L10,4 C9.44811686,4 9.00424986,4.44383154 9.00003034,5 L14.9999888,5 Z M12,13.5857864 L13.2928932,12.2928932 C13.6834175,11.9023689 14.3165825,11.9023689 14.7071068,12.2928932 C15.0976311,12.6834175 15.0976311,13.3165825 14.7071068,13.7071068 L13.4142136,15 L14.7071068,16.2928932 C15.0976311,16.6834175 15.0976311,17.3165825 14.7071068,17.7071068 C14.3165825,18.0976311 13.6834175,18.0976311 13.2928932,17.7071068 L12,16.4142136 L10.7071068,17.7071068 C10.3165825,18.0976311 9.68341751,18.0976311 9.29289322,17.7071068 C8.90236893,17.3165825 8.90236893,16.6834175 9.29289322,16.2928932 L10.5857864,15 L9.29289322,13.7071068 C8.90236893,13.3165825 8.90236893,12.6834175 9.29289322,12.2928932 C9.68341751,11.9023689 10.3165825,11.9023689 10.7071068,12.2928932 L12,13.5857864 Z M17,12 C17,11.4477153 17.4477153,11 18,11 C18.5522847,11 19,11.4477153 19,12 L19,19.998 C19,21.604 17.953,23 16.4985,23 L7.5,23 C6.047,23 5,21.604 5,20 L5,12 C5,11.4477153 5.44771525,11 6,11 C6.55228475,11 7,11.4477153 7,12 L7,20 C7,20.604 7.297,21 7.5,21 L16.4985,21 C16.703,21 17,20.604 17,19.998 L17,12 Z M18.5454545,8 C18.7861665,8 19,7.77948418 19,7.5 C19,7.22051582 18.7861665,7 18.5454545,7 L5.45454545,7 C5.21383352,7 5,7.22051582 5,7.5 C5,7.77948418 5.21383352,8 5.45454545,8 L18.5454545,8 Z"/>
</svg>
