<svg width="25" height="25" viewBox="0 0 22 14" fill="none" xmlns="http://www.w3.org/2000/svg">
<path fill-rule="evenodd" clip-rule="evenodd" d="M5 0C3.34315 0 2 1.34315 2 3C2 4.02458 2.00001 5.04917 2.00002 6.07375C2.00004 8.04917 2.00007 10.0246 2.00001 12H1C0.447715 12 0 12.4477 0 13C0 13.5523 0.447716 14 1 14H1.99992H20H21C21.5523 14 22 13.5523 22 13C22 12.4477 21.5523 12 21 12H20V3C20 1.34315 18.6569 0 17 0H5ZM18 12V3C18 2.44772 17.5523 2 17 2H5C4.44772 2 4 2.44772 4 3V12H18Z" fill="#4360DF"/>
</svg>
