<svg width="24px" height="24px" viewBox="0 0 24 24" version="1.1" xmlns="http://www.w3.org/2000/svg">
    <path fill="" d="M9.45193925,13.7537392 L7.26279002,12.9529307 C6.35511602,12.6208963 5.888468,11.615914 6.22050249,10.70824 C6.26557584,10.5850241 6.32436272,10.4672679 6.39575494,10.3571911 L12.742556,1.57131376 C13.1741283,0.905889869 14.2084917,1.27835681 14.1167679,2.06615774 L13.2037815,8.90765762 C13.1908988,9.01830484 13.2527771,9.1241266 13.3555235,9.16716082 L16.3684577,10.4290956 C17.2599209,10.8024753 17.6799106,11.827833 17.3065309,12.7192962 C17.2768982,12.7900458 17.242646,12.8587707 17.2039958,12.9250261 L11.3982074,21.8775141 C11.0052004,22.5512206 9.97271936,22.2519867 10.0008666,21.4725365 L10.2716953,14.9727702 C10.291231,14.4317892 9.96032545,13.939711 9.45193925,13.7537392 Z" id="icon">
    </path>
</svg>
