<svg xmlns="http://www.w3.org/2000/svg" width="24" height="24" viewBox="0 0 24 24">
  <path fill="" fill-rule="evenodd" d="M19.0029699,4 C19.277802,4 19.5266622,4.1105715 19.7080784,4.29549194 C19.8884718,4.47666861 20,4.72552037 20,4.99703014 L20,10.0029699 C20,10.5536144 19.5561352,11 19,11 C18.4477153,11 18,10.5469637 18,10.0029699 L18,6 L13.9970301,6 C13.4463856,6 13,5.55613518 13,5 C13,4.44771525 13.4530363,4 13.9970301,4 L19.0029699,4 Z M4,4.99703014 C4,4.72219796 4.1105715,4.4733378 4.29549194,4.29192156 C4.47666861,4.11152824 4.72552037,4 4.99703014,4 L10.0029699,4 C10.5536144,4 11,4.44386482 11,5 C11,5.55228475 10.5469637,6 10.0029699,6 L6,6 L6,10.0029699 C6,10.5536144 5.55613518,11 5,11 C4.44771525,11 4,10.5469637 4,10.0029699 L4,4.99703014 Z M4.99703014,20 C4.72219796,20 4.4733378,19.8894285 4.29192156,19.7045081 C4.11152824,19.5233314 4,19.2744796 4,19.0029699 L4,13.9970301 C4,13.4463856 4.44386482,13 5,13 C5.55228475,13 6,13.4530363 6,13.9970301 L6,18 L10.0029699,18 C10.5536144,18 11,18.4438648 11,19 C11,19.5522847 10.5469637,20 10.0029699,20 L4.99703014,20 Z M20,19.0029699 C20,19.277802 19.8894285,19.5266622 19.7045081,19.7080784 C19.5233314,19.8884718 19.2744796,20 19.0029699,20 L13.9970301,20 C13.4463856,20 13,19.5561352 13,19 C13,18.4477153 13.4530363,18 13.9970301,18 L18,18 L18,13.9970301 C18,13.4463856 18.4438648,13 19,13 C19.5522847,13 20,13.4530363 20,13.9970301 L20,19.0029699 Z"/>
</svg>
