<svg xmlns="http://www.w3.org/2000/svg" width="24" height="24" viewBox="0 0 24 24">
  <path fill="" fill-rule="evenodd" d="M5,10 C5,9.44771525 5.44994876,9 6.00684547,9 L17.9931545,9 C18.5492199,9 19,9.44386482 19,10 C19,10.5522847 18.5500512,11 17.9931545,11 L6.00684547,11 C5.45078007,11 5,10.5561352 5,10 Z M5,14 C5,13.4477153 5.44994876,13 6.00684547,13 L17.9931545,13 C18.5492199,13 19,13.4438648 19,14 C19,14.5522847 18.5500512,15 17.9931545,15 L6.00684547,15 C5.45078007,15 5,14.5561352 5,14 Z"/>
</svg>
