<svg xmlns="http://www.w3.org/2000/svg" width="24" height="24" viewBox="0 0 24 24">
  <path fill="" d="M7.5,9.5 C8.32842712,9.5 9,8.82842712 9,8 C9,7.17157288 8.32842712,6.5 7.5,6.5 C6.67157288,6.5 6,7.17157288 6,8 C6,8.82842712 6.67157288,9.5 7.5,9.5 Z M7.5,11.5 C5.56700338,11.5 4,9.93299662 4,8 C4,6.06700338 5.56700338,4.5 7.5,4.5 C9.43299662,4.5 11,6.06700338 11,8 C11,9.93299662 9.43299662,11.5 7.5,11.5 Z M7.30534261,15.50123 C7.60553658,14.7750004 7.99092707,14.11609 8.46270768,13.5324596 C8.15749779,13.5110937 7.83685516,13.5 7.49999931,13.5 C0.5,13.5 0.799121209,18.5314815 0.799121209,18.5314815 C0.577268533,19.6134452 1.39805342,20.5 2.50585846,20.5 L6.49999966,20.5 L6.50000034,20.4988391 C6.50044281,19.7352007 6.51905355,19.0944961 6.57578609,18.5 L2.63008884,18.5 C2.65747759,18.3579041 2.69020457,18.2190515 2.72916438,18.0777206 C3.18168192,16.4361646 4.36934114,15.5387986 7.30534261,15.50123 L7.30534261,15.50123 Z M16,10.5 C14.0670034,10.5 12.5,8.93299662 12.5,7 C12.5,5.06700338 14.0670034,3.5 16,3.5 C17.9329966,3.5 19.5,5.06700338 19.5,7 C19.5,8.93299662 17.9329966,10.5 16,10.5 Z M23.2443899,18.5224714 C23.3855587,19.6146303 22.6066014,20.5 21.5081146,20.5 L10.491884,20.5 C9.39179685,20.5 8.5665532,19.6132936 8.75560868,18.5224714 C8.75560868,18.5224714 8.5,12.5 15.9999993,12.5 C23.4999986,12.5 23.2443899,18.5224714 23.2443899,18.5224714 Z M21.1685339,17.5066793 C20.5722106,15.5582218 19.1598905,14.5 15.9999993,14.5 C12.8401579,14.5 11.4278315,15.5582157 10.8314887,17.5066493 C10.7304447,17.8367908 10.6582857,18.1561625 10.6076654,18.5000002 L21.3923408,18.5000015 C21.3417241,18.1561731 21.2695704,17.8368109 21.1685339,17.5066793 Z M16,8.5 C16.8284271,8.5 17.5,7.82842712 17.5,7 C17.5,6.17157288 16.8284271,5.5 16,5.5 C15.1715729,5.5 14.5,6.17157288 14.5,7 C14.5,7.82842712 15.1715729,8.5 16,8.5 Z"/>
</svg>
