<svg xmlns="http://www.w3.org/2000/svg" width="24" height="24" viewBox="0 0 24 24">
  <path fill-rule="evenodd" d="M10.6049112,13.393155 C10.0804564,13.1405737 9.49242253,12.9992378 8.87132141,12.9992378 C7.01413652,12.9992378 5.44743232,14.2733544 5,15.9988567 L9.87119489,15.9988567 L9.87119523,15.9982763 C9.87174918,15.0439692 10.1400709,14.1519051 10.6049112,13.393155 L10.6049112,13.393155 Z M8.8695035,11.9993648 C7.76507431,11.9993648 6.86975756,11.1040481 6.86975756,9.9996189 C6.86975756,8.89518972 7.76507431,7.99987297 8.8695035,7.99987297 C9.97393268,7.99987297 10.8692494,8.89518972 10.8692494,9.9996189 C10.8692494,11.1040481 9.97393268,11.9993648 8.8695035,11.9993648 Z M15.2705099,10.9994919 C14.1660807,10.9994919 13.270764,10.1041751 13.270764,8.99974593 C13.270764,7.89531675 14.1660807,7 15.2705099,7 C16.3749391,7 17.2702558,7.89531675 17.2702558,8.99974593 C17.2702558,10.1041751 16.3749391,10.9994919 15.2705099,10.9994919 Z M11.2710181,15.9988567 C11.2723004,13.7897788 13.0669332,11.9993648 15.2705093,11.9993648 C17.4785784,11.9993648 19.2687214,13.7896789 19.2700005,15.9988567 L11.2710181,15.9988567 L11.2710181,15.9988567 Z"/>
</svg>
