<svg xmlns="http://www.w3.org/2000/svg" width="24" height="24" viewBox="0 0 24 24">
  <path fill="" fill-rule="evenodd" d="M5,7 C5,6.44771525 5.44994876,6 6.00684547,6 L17.9931545,6 C18.5492199,6 19,6.44386482 19,7 C19,7.55228475 18.5500512,8 17.9931545,8 L6.00684547,8 C5.45078007,8 5,7.55613518 5,7 Z M5,12 C5,11.4477153 5.45303631,11 5.99703014,11 L12.0029699,11 C12.5536144,11 13,11.4438648 13,12 C13,12.5522847 12.5469637,13 12.0029699,13 L5.99703014,13 C5.4463856,13 5,12.5561352 5,12 Z M5,17 C5,16.4477153 5.45576096,16 6.00247329,16 L15.9975267,16 C16.5511774,16 17,16.4438648 17,17 C17,17.5522847 16.544239,18 15.9975267,18 L6.00247329,18 C5.44882258,18 5,17.5561352 5,17 Z"/>
</svg>
