<svg width="24" height="24" viewBox="0 0 24 24" fill="none" xmlns="http://www.w3.org/2000/svg">
<path fill-rule="evenodd" clip-rule="evenodd" d="M4 6H20C20.5523 6 21 6.44772 21 7V17C21 17.5523 20.5523 18 20 18H4C3.44769 18 3 17.5523 3 17V7C3 6.44772 3.44769 6 4 6ZM1 7C1 5.34314 2.34314 4 4 4H20C21.6569 4 23 5.34314 23 7V17C23 18.6569 21.6569 20 20 20H4C2.34314 20 1 18.6569 1 17V7ZM6 10C5.44769 10 5 10.4477 5 11V13C5 13.5523 5.44769 14 6 14H8C8.55231 14 9 13.5523 9 13V11C9 10.4477 8.55231 10 8 10H6Z" fill="#4360DF"/>
</svg>
