<svg xmlns="http://www.w3.org/2000/svg" width="24" height="24" viewBox="0 0 24 24">
  <g fill="" >
    <path d="M12,18 C17.4517777,18 22,15.2205308 22,11.5 C22,10.4403969 21.6215769,9.42636806 20.9216609,8.52686692 L19.343215,9.75508043 C19.7804312,10.3169714 20,10.9053317 20,11.5 C20,13.8546014 16.4893478,16 12,16 L12,18 Z M17.009171,5.85666024 C15.5017211,5.29777926 13.7836977,5 12,5 C6.54822233,5 2,7.7794692 2,11.5 C2,13.7893954 3.7423297,15.7793689 6.48422889,16.942253 L7.26513175,15.1010059 C5.18999937,14.2209085 4,12.8617701 4,11.5 C4,9.14539855 7.51065217,7 12,7 C13.5502411,7 15.0328502,7.25697569 16.3139229,7.73192825 L17.009171,5.85666024 Z"/>
    <path d="M18.7928932,3.79289322 L3.79289322,18.7928932 C3.40236893,19.1834175 3.40236893,19.8165825 3.79289322,20.2071068 C4.18341751,20.5976311 4.81658249,20.5976311 5.20710678,20.2071068 L20.2071068,5.20710678 C20.5976311,4.81658249 20.5976311,4.18341751 20.2071068,3.79289322 C19.8165825,3.40236893 19.1834175,3.40236893 18.7928932,3.79289322 Z"/>
    <path d="M14.8192649,9.1624401 C14.0753688,8.42331778 13.0698997,8 12,8 C9.790861,8 8,9.790861 8,12 C8,13.0611694 8.41641755,14.0591484 9.14490147,14.801503 L10.5723882,13.4006884 C10.2072369,13.0285844 10,12.5319241 10,12 C10,10.8954305 10.8954305,10 12,10 C12.5362815,10 13.0367053,10.210686 13.409611,10.5811986 L14.8192649,9.1624401 Z"/>
  </g>
</svg>
