<svg xmlns="http://www.w3.org/2000/svg" width="24" height="24" viewBox="0 0 24 24">
    <g fill="" fill-rule="evenodd">
        <path fill="" fill-rule="evenodd" d="M16.09 19.727v-1.636a4.273 4.273 0 0 0-4.272-4.273H5.273A4.273 4.273 0 0 0 1 18.091v1.636a1 1 0 1 0 2 0v-1.636a2.273 2.273 0 0 1 2.273-2.273h6.545a2.273 2.273 0 0 1 2.273 2.273v1.636a1 1 0 1 0 2 0zm-7.545-9.182a2.273 2.273 0 1 0 0-4.545 2.273 2.273 0 0 0 0 4.545zm8.38 1.115l4.368-4.367a1 1 0 0 1 1.414 1.414L17.716 13.7a1 1 0 0 1-1.35.075l-2.49-1.993a1 1 0 1 1 1.249-1.562l1.8 1.441zm-8.38.885a4.273 4.273 0 1 1 0-8.545 4.273 4.273 0 0 1 0 8.545z"/>
    </g>
</svg>
