<svg width="20" height="20" viewBox="0 0 20 20" fill="none" xmlns="http://www.w3.org/2000/svg">
<path d="M11 13.9513C11 14.5035 10.5522 14.9513 10 14.9513C9.44775 14.9513 9 14.5035 9 13.9513V9.0304C9 9.0304 9 8 10 8C10.8345 8 11 8.88428 11 9.0304V13.9513Z" fill="#000000" fill-rule="evenodd"/>
<path d="M11 6C11 6.55225 10.5522 7 10 7C9.44775 7 9 6.55225 9 6C9 5.44775 9.44775 5 10 5C10.5522 5 11 5.44775 11 6Z" fill="#000000" fill-rule="evenodd"/>
<path d="M0 10C0 15.5228 4.47705 20 10 20C15.5229 20 20 15.5228 20 10C20 4.47717 15.5229 0 10 0C4.47705 0 0 4.47717 0 10ZM18 10C18 14.4183 14.4182 18 10 18C5.58179 18 2 14.4183 2 10C2 5.58167 5.58179 2 10 2C14.4182 2 18 5.58167 18 10Z" fill="#000000" fill-rule="evenodd"/>
</svg>
