<svg width="24" height="24" viewBox="0 0 24 24" xmlns="http://www.w3.org/2000/svg">
<path fill="" fill-rule="evenodd" clip-rule="evenodd" d="M2 12C2 17.5234 6.47717 22 12 22C17.5228 22 22 17.5234 22 12C22 6.47656 17.5228 2 12 2C6.47717 2 2 6.47656 2 12ZM20 12C20 16.418 16.4183 20 12 20C7.58173 20 4 16.418 4 12C4 7.58203 7.58173 4 12 4C16.4183 4 20 7.58203 20 12ZM13 15.9512C13 16.5039 12.5523 16.9512 12 16.9512C11.4477 16.9512 11 16.5039 11 15.9512V11.0312C11 11.0312 11 10 12 10C12.8345 10 13 10.8848 13 11.0312V15.9512ZM13 8C13 8.55273 12.5523 9 12 9C11.4477 9 11 8.55273 11 8C11 7.44727 11.4477 7 12 7C12.5523 7 13 7.44727 13 8Z"/>
</svg>
