<svg width="16" height="16" viewBox="0 0 16 16" xmlns="http://www.w3.org/2000/svg">
  <path fill="" d="M5,8 L5,6.25641026 C5,4.47325715 6.32593143,3 8,3 C9.67406857,3 11,4.47325715 11,6.25641026 L11,8 L11.5,8 C12.3284271,8 13,8.67157288 13,9.5 L13,12.5 C13,13.3284271 12.3284271,14 11.5,14 L4.5,14 C3.67157288,14 3,13.3284271 3,12.5 L3,9.5 C3,8.67157288 3.67157288,8 4.5,8 L5,8 Z M6.38461538,8 L9.61538462,8 L9.61538462,6.25641026 C9.61538462,5.20733388 8.87493797,4.38461538 8,4.38461538 C7.12506203,4.38461538 6.38461538,5.20733388 6.38461538,6.25641026 L6.38461538,8 Z" id="shape"></path>
</svg>
