<svg xmlns="http://www.w3.org/2000/svg" width="16" height="16" viewBox="0 0 16 16">
  <g fill-rule="evenodd">
    <path d="M5 8L5 6.25641026C5 4.47325715 6.32593143 3 8 3 9.67406857 3 11 4.47325715 11 6.25641026L11 8 5 8zM6.39959641 6C6.50856018 5.07632579 7.19774249 4.38461538 8 4.38461538 8.87493797 4.38461538 9.61538462 5.20733388 9.61538462 6.25641026L9.61538462 8 6.38461538 8 5 8 5 6 6.39959641 6zM5 8L11 8 11.5 8C12.3284271 8 13 8.67157288 13 9.5L13 12.5C13 13.3284271 12.3284271 14 11.5 14L4.5 14C3.67157288 14 3 13.3284271 3 12.5L3 9.5C3 8.67157288 3.67157288 8 4.5 8L5 8z"/>
  </g>
</svg>
