<svg xmlns="http://www.w3.org/2000/svg" width="46" height="46" viewBox="0 0 144 152">
    <g stroke="none" stroke-width="1" fill-rule="evenodd">
        <path fill="" d="M41.85,82.81 C61.54,81.7 73.88,86.18 93.57,85.07 C98.4541022,84.8006381 103.305626,84.1080412 108.07,83 C105.16,118.58 79.34,149.68 44.34,151.68 C22.83,152.86 1.33,139.92 0.16,118.86 C-0.98,98.16 15.18,84.31 41.85,82.81 Z M99.53,73.91 C79,75.1 66.1,70.31 45.54,71.5 C40.4407254,71.7827279 35.3770963,72.5223591 30.41,73.71 C33.44,35.69 60.35,2.43 96.94,0.32 C119.39,-0.98 141.83,12.89 143.05,35.39 C144.24,57.51 127.38,72.31 99.53,73.91 Z"></path>
    </g>
</svg>