<svg xmlns="http://www.w3.org/2000/svg" width="24" height="24" viewBox="0 0 24 24">
  <path fill="" fill-rule="evenodd" d="M12.9144616,17.4353336 C12.9159235,17.4566281 12.9166667,17.4781326 12.9166667,17.4998235 L12.9166667,20.2501765 C12.9166667,20.75634 12.5097906,21.1666667 12,21.1666667 C11.493739,21.1666667 11.0833333,20.7599264 11.0833333,20.2501765 L11.0833333,17.4998235 C11.0833333,17.4781433 11.0840798,17.4566389 11.0855488,17.4353351 C7.97486583,16.9914948 5.58333333,14.3167003 5.58333333,11.0833333 C5.58333333,10.5770723 5.99373898,10.1666667 6.5,10.1666667 C7.00626102,10.1666667 7.41666667,10.5770723 7.41666667,11.0833333 C7.41666667,13.6146384 9.4686949,15.6666667 12,15.6666667 C14.5313051,15.6666667 16.5833333,13.6146384 16.5833333,11.0833333 C16.5833333,11.5895944 16.993739,12 17.5,12 C18.006261,12 18.4166667,11.5895944 18.4166667,11.0833333 C18.4166667,14.3166967 16.0251395,16.9914889 12.9144616,17.4353336 Z M9.25,6.50531514 C9.25,4.98359661 10.4843074,3.75 12,3.75 C13.5187831,3.75 14.75,4.98641459 14.75,6.50531514 L14.75,11.0780182 C14.75,12.5997367 13.5156926,13.8333333 12,13.8333333 C10.4812169,13.8333333 9.25,12.5969187 9.25,11.0780182 L9.25,6.50531514 Z"/>
</svg>
