
<svg width="14" height="22" viewBox="0 0 14 22" fill="none" xmlns="http://www.w3.org/2000/svg">
<path fill-rule="evenodd" clip-rule="evenodd" d="M0 3C0 1.34315 1.34315 0 3 0H11C12.6569 0 14 1.34315 14 3V19C14 20.6569 12.6569 22 11 22H3C1.34315 22 0 20.6569 0 19V3ZM3 2C2.44772 2 2 2.44772 2 3V19C2 19.5523 2.44772 20 3 20H11C11.5523 20 12 19.5523 12 19V3C12 2.44772 11.5523 2 11 2H10.4142C10.149 2 9.89464 2.10536 9.70711 2.29289L9.29289 2.70711C9.10536 2.89464 8.851 3 8.58579 3H5.41421C5.149 3 4.89464 2.89464 4.70711 2.70711L4.29289 2.29289C4.10536 2.10536 3.851 2 3.58579 2H3Z" fill="#4360DF"/>
</svg>
