<svg xmlns="http://www.w3.org/2000/svg" width="24" height="24" viewBox="0 0 24 24">
  <g fill="">
    <path d="M17,17 C17.8284271,17 18.5,16.3284271 18.5,15.5 C18.5,14.6715729 17.8284271,14 17,14 C16.1715729,14 15.5,14.6715729 15.5,15.5 C15.5,16.3284271 16.1715729,17 17,17 Z M17,18.5 C15.3431458,18.5 14,17.1568542 14,15.5 C14,13.8431458 15.3431458,12.5 17,12.5 C18.6568542,12.5 20,13.8431458 20,15.5 C20,17.1568542 18.6568542,18.5 17,18.5 Z M7,17 C7.82842712,17 8.5,16.3284271 8.5,15.5 C8.5,14.6715729 7.82842712,14 7,14 C6.17157288,14 5.5,14.6715729 5.5,15.5 C5.5,16.3284271 6.17157288,17 7,17 Z M7,18.5 C5.34314575,18.5 4,17.1568542 4,15.5 C4,13.8431458 5.34314575,12.5 7,12.5 C8.65685425,12.5 10,13.8431458 10,15.5 C10,17.1568542 8.65685425,18.5 7,18.5 Z M9,14.75 L15,14.75 L15,16.25 L9,16.25 L9,14.75 Z"/>
    <path d="M13.299539,7.65049482 C13.7137526,6.93305589 13.4679399,6.01567028 12.7505009,5.60145672 C12.033062,5.18724315 11.1156764,5.43305589 10.7014628,6.15049482 C10.2872493,6.86793376 10.533062,7.78531937 11.2505009,8.19953293 C11.9679399,8.61374649 12.8853255,8.36793376 13.299539,7.65049482 Z M14.5985771,8.40049482 C13.77015,9.83537269 11.9353788,10.3269982 10.5005009,9.49857103 C9.06562306,8.67014391 8.57399759,6.83537269 9.40242471,5.40049482 C10.2308518,3.96561695 12.0656231,3.47399149 13.5005009,4.30241861 C14.9353788,5.13084574 15.4270043,6.96561695 14.5985771,8.40049482 Z M7.35098187,13.4536981 L10.3509819,8.25754563 L11.65002,9.00754563 L8.65001998,14.2036981 L7.35098187,13.4536981 Z M16.65002,13.4536981 L15.3509819,14.2036981 L12.3509819,9.00754563 L13.65002,8.25754563 L16.65002,13.4536981 Z"/>
  </g>
</svg>
