<svg xmlns="http://www.w3.org/2000/svg" width="24" height="24" viewBox="0 0 24 24">
  <path fill="" fill-rule="nonzero" d="M16.0909091,19.7272727 L16.0909091,18.0909091 C16.0909091,15.731147 14.1779439,13.8181818 11.8181818,13.8181818 L5.27272727,13.8181818 C2.91296516,13.8181818 1,15.731147 1,18.0909091 L1,19.7272727 C1,20.2795575 1.44771525,20.7272727 2,20.7272727 C2.55228475,20.7272727 3,20.2795575 3,19.7272727 L3,18.0909091 C3,16.8357165 4.01753466,15.8181818 5.27272727,15.8181818 L11.8181818,15.8181818 C13.0733744,15.8181818 14.0909091,16.8357165 14.0909091,18.0909091 L14.0909091,19.7272727 C14.0909091,20.2795575 14.5386243,20.7272727 15.0909091,20.7272727 C15.6431938,20.7272727 16.0909091,20.2795575 16.0909091,19.7272727 Z M8.54545455,10.5454545 C9.80064716,10.5454545 10.8181818,9.52791989 10.8181818,8.27272727 C10.8181818,7.01753466 9.80064716,6 8.54545455,6 C7.29026193,6 6.27272727,7.01753466 6.27272727,8.27272727 C6.27272727,9.52791989 7.29026193,10.5454545 8.54545455,10.5454545 Z M18,11 L18,9.00292933 C18,8.44902676 18.6474695,8 18.9255371,8 C19.2016795,8 19.9146729,8.43788135 19.9146729,9.00292933 L19.9146729,11 L21.6942142,11 C22.2481168,11 22.6971436,11.4438648 22.6971436,12 C22.6971436,12.5522847 22.2592622,13 21.6942142,13 L19.9146729,13 L19.9146729,15 C19.9146729,15.5539026 19.2036047,16.0029293 18.9255371,16.0029293 C18.6493947,16.0029293 18,15.565048 18,15 L18,13 L16.0029293,13 C15.4490268,13 15,12.5561352 15,12 C15,11.4477153 15.4378814,11 16.0029293,11 L18,11 Z M8.54545455,12.5454545 C6.18569243,12.5454545 4.27272727,10.6324894 4.27272727,8.27272727 C4.27272727,5.91296516 6.18569243,4 8.54545455,4 C10.9052167,4 12.8181818,5.91296516 12.8181818,8.27272727 C12.8181818,10.6324894 10.9052167,12.5454545 8.54545455,12.5454545 Z"/>
</svg>
