<svg width="36" height="36" viewBox="0 0 36 36" fill="none" xmlns="http://www.w3.org/2000/svg">
<path fill-rule="evenodd" clip-rule="evenodd" d="M35 18C35 27.3889 27.3888 35 18 35C8.61121 35 1 27.3889 1 18C1 8.61115 8.61121 1 18 1C27.3888 1 35 8.61115 35 18ZM36 18C36 27.9411 27.9412 36 18 36C8.05884 36 0 27.9411 0 18C0 8.0589 8.05884 0 18 0C27.9412 0 36 8.0589 36 18ZM29.3284 14.4471C27.7992 12.9387 26.016 11.7706 24.0283 10.9755C22.1088 10.2076 20.0804 9.81824 18 9.81824C15.9194 9.81824 13.8911 10.2076 11.9716 10.9755C9.98389 11.7706 8.20081 12.9387 6.67151 14.4471C6.50342 14.613 6.50342 14.882 6.67151 15.0479C6.83972 15.2138 7.1123 15.2138 7.28052 15.0479C10.1438 12.2234 13.9507 10.6678 18 10.6678C22.0493 10.6678 25.8562 12.2234 28.7195 15.0479C28.7462 15.0742 28.7755 15.0964 28.8066 15.1144C28.832 15.1291 28.8586 15.141 28.886 15.1501C28.9307 15.1649 28.9773 15.1723 29.0239 15.1723C29.0691 15.1723 29.1141 15.1653 29.1575 15.1514C29.22 15.1314 29.2787 15.0969 29.3284 15.0479C29.4966 14.882 29.4966 14.613 29.3284 14.4471ZM18.0001 19.0457C16.2194 19.0457 14.5453 19.7298 13.286 20.9719C13.1179 21.1378 13.1179 21.4068 13.286 21.5726C13.2943 21.5808 13.3029 21.5886 13.3116 21.596C13.3176 21.6011 13.3237 21.6059 13.33 21.6105C13.3588 21.6322 13.3896 21.6498 13.4219 21.6633C13.4408 21.6712 13.4601 21.6777 13.4797 21.6829C13.5161 21.6923 13.5533 21.6971 13.5906 21.6971C13.7007 21.6971 13.8109 21.6556 13.895 21.5726C14.9915 20.491 16.4493 19.8953 18.0001 19.8953C19.5508 19.8953 21.0087 20.4909 22.1051 21.5726C22.2733 21.7385 22.5459 21.7385 22.7141 21.5726C22.8823 21.4067 22.8823 21.1377 22.7141 20.9718C21.4551 19.7297 19.7809 19.0457 18.0001 19.0457ZM9.97876 17.7094C12.1213 15.5959 14.9701 14.4319 18.0001 14.4319C21.03 14.4319 23.8788 15.5959 26.0214 17.7094C26.1895 17.8754 26.1895 18.1443 26.0214 18.3102C25.9373 18.3931 25.827 18.4346 25.7169 18.4346C25.6067 18.4346 25.4965 18.3932 25.4124 18.3102C23.4325 16.3571 20.8 15.2815 18.0001 15.2815C15.2001 15.2815 12.5677 16.3571 10.5878 18.3102C10.4196 18.4761 10.147 18.4761 9.97876 18.3102C9.81067 18.1443 9.81067 17.8753 9.97876 17.7094ZM18.0001 23.6769C17.3 23.6769 16.7305 24.2388 16.7305 24.9293C16.7305 25.62 17.3 26.1818 18.0001 26.1818C18.7002 26.1818 19.2698 25.6199 19.2698 24.9293C19.2698 24.2388 18.7002 23.6769 18.0001 23.6769ZM18.0001 25.3322C17.7749 25.3322 17.5917 25.1515 17.5917 24.9293C17.5917 24.7072 17.7749 24.5265 18.0001 24.5265C18.2252 24.5265 18.4084 24.7072 18.4084 24.9293C18.4084 25.1515 18.2252 25.3322 18.0001 25.3322Z" fill="#939BA1"/>
</svg>
