<svg width="24" height="24" viewBox="0 0 24 24" fill="none" xmlns="http://www.w3.org/2000/svg">
<path fill-rule="evenodd" clip-rule="evenodd" d="M13 4C13 3.44772 12.5523 3 12 3C11.4477 3 11 3.44772 11 4V9.58582L7.41418 6C7.02368 5.6095 6.3905 5.6095 6 6C5.60944 6.39053 5.60944 7.02371 6 7.41422L9.58575 11H4C3.44769 11 3 11.4477 3 12C3 12.5523 3.44769 13 4 13H9.58582L6 16.5858C5.6095 16.9763 5.6095 17.6095 6 18C6.39056 18.3905 7.02368 18.3905 7.41425 18L11 14.4142V20C11 20.5523 11.4477 21 12 21C12.5523 21 13 20.5523 13 20V14.4142L16.5858 18C16.9763 18.3905 17.6094 18.3905 18 18C18.3905 17.6095 18.3905 16.9763 18 16.5858L14.4142 13H20C20.5523 13 21 12.5523 21 12C21 11.4477 20.5523 11 20 11H14.4142L18 7.41418C18.3906 7.02368 18.3906 6.3905 18 5.99997C17.6095 5.60947 16.9763 5.60947 16.5858 5.99997L13 9.58578V4Z" fill="#4360DF"/>
</svg>
