<svg width="18" height="18" viewBox="0 0 18 18" fill="none" xmlns="http://www.w3.org/2000/svg">
<path fill-rule="evenodd" clip-rule="evenodd" d="M9 18C7.34315 18 6 16.6569 6 15V9C6 7.34315 7.34315 6 9 6H15C16.6569 6 18 7.34315 18 9V15C18 16.6569 16.6569 18 15 18H9ZM8 15C8 15.5523 8.44771 16 9 16H15C15.5523 16 16 15.5523 16 15V9C16 8.44771 15.5523 8 15 8H9C8.44772 8 8 8.44771 8 9V15Z" fill="black"/>
<path d="M3 12H4V10H3C2.44772 10 2 9.55228 2 9V3C2 2.44771 2.44772 2 3 2H9C9.55229 2 10 2.44771 10 3V4H12V3C12 1.34315 10.6569 0 9 0H3C1.34315 0 0 1.34315 0 3V9C0 10.6569 1.34315 12 3 12Z" fill="black"/>
</svg>
