<svg width="20" height="20" viewBox="0 0 20 20" fill="none" xmlns="http://www.w3.org/2000/svg">
<path fill-rule="evenodd" clip-rule="evenodd" d="M3 2H2.5H2V2.5V3V4.125C2 4.67728 1.55228 5.125 1 5.125C0.447715 5.125 0 4.67728 0 4.125V3L1.26443e-05 2C-2.8158e-06 1.5 0 1 0.5 0.5C1 0 1.5 0.000220012 2 0.000565827C2.49719 0 2.59398 0 2.99319 0H3H4.125C4.67729 0 5.125 0.447715 5.125 1C5.125 1.55228 4.67729 2 4.125 2H3ZM5.375 1C5.375 0.447715 5.82272 0 6.375 0H8.625C9.17729 0 9.625 0.447715 9.625 1C9.625 1.55228 9.17729 2 8.625 2H6.375C5.82272 2 5.375 1.55228 5.375 1ZM1 5.375C1.55228 5.375 2 5.82271 2 6.375V8.62501C2 9.17729 1.55228 9.62501 1 9.62501C0.447715 9.62501 0 9.17729 0 8.62501V6.375C0 5.82271 0.447715 5.375 1 5.375ZM13.125 2.5V3V5H7C5.89543 5 5 5.89543 5 7V13.125H3H2.5H2V12.625L2 12.125V11C2 10.4477 1.55228 10 1 10C0.447715 10 0 10.4477 0 11V12.125V12.1318C0 12.531 0 12.6278 0.00056568 13.125C0.000219887 13.625 0 14.125 0.5 14.625C1 15.125 1.5 15.125 2 15.125L3 15.125L5 15.125V18C5 19.1046 5.89543 20 7 20H18C19.1046 20 20 19.1046 20 18V7C20 5.89543 19.1046 5 18 5H15.125V3V2.99319C15.125 2.59399 15.125 2.49719 15.1244 2C15.1248 1.5 15.125 1 14.625 0.5C14.125 0 13.625 -2.88952e-06 13.125 1.25488e-05L12.125 0H11C10.4477 0 10 0.447716 10 1C10 1.55229 10.4477 2 11 2L12.125 2H12.625H13.125V2.5ZM7 7H18V18H7V7Z" fill="white"/>
</svg>
