<svg width="18" height="19" viewBox="0 0 18 19" fill="none" xmlns="http://www.w3.org/2000/svg">
<path d="M9 0C8.44771 0 8 0.447716 8 1V10C8 10.5523 8.44771 11 9 11C9.55229 11 10 10.5523 10 10V1C10 0.447715 9.55229 0 9 0Z" fill="#FF2D55"/>
<path d="M4.05025 5.05025C4.44078 4.65972 4.44078 4.02656 4.05025 3.63603C3.65973 3.24551 3.02656 3.24551 2.63604 3.63603C1.00845 5.26362 0 7.51499 0 9.99999C0 14.9706 4.02944 19 9 19C13.9706 19 18 14.9706 18 9.99999C18 7.51499 16.9916 5.26363 15.364 3.63604C14.9734 3.24552 14.3403 3.24552 13.9498 3.63604C13.5592 4.02656 13.5592 4.65973 13.9498 5.05025C15.2176 6.3181 16 8.06672 16 9.99999C16 13.866 12.866 17 9 17C5.13401 17 2 13.866 2 9.99999C2 8.06672 2.78241 6.31809 4.05025 5.05025Z" fill="#FF2D55"/>
</svg>
