<svg xmlns="http://www.w3.org/2000/svg" width="24" height="24" viewBox="0 0 24 24">
  <path d="M9.30000305,13.6116448 L9.30000305,14.2549303 C9.30000305,15.0872758 9.96970237,15.7565957 10.8000031,15.7565957 C11.6015871,15.7565957 12.2591458,15.130838 12.2974091,14.3350564 L12.2974091,14.3343089 L13.7530212,14.6852519 C13.6606246,16.03924 12.4534859,17.2565957 10.8000031,17.2565957 C9.1431488,17.2565957 7.80000305,15.9175756 7.80000305,14.2549303 L7.80000305,13.25 L9.30000305,13.6116448 Z M7,9.5640553 C7,9.28775321 7.21398067,9.01255085 7.48839319,8.94687151 L14.5116068,7.2658985 C14.7813389,7.2013394 15,7.37198038 15,7.6527182 L15,13.3469573 C15,13.6251511 14.7860193,13.7994564 14.5116068,13.733777 L7.48839319,12.052804 C7.21866108,11.9882449 7,11.7105372 7,11.4356202 L7,9.5640553 Z M16,6.89585781 C16,6.4010892 16.3994783,6 16.9,6 C17.3970562,6 17.8,6.41009796 17.8,6.89585781 L17.8,14.1041422 C17.8,14.5989108 17.4005216,15 16.9,15 C16.4029437,15 16,14.589902 16,14.1041422 L16,6.89585781 Z"/>
</svg>
