<svg xmlns="http://www.w3.org/2000/svg" width="24" height="24" viewBox="0 0 24 24">
  <path fill="" d="M8,15.8824142 L6,15.4339892 L6,17.0041738 C6,19.2034788 7.790861,21 10,21 C12.1301737,21 13.8782431,19.3298264 13.9939079,17.2263231 L12,16.7792641 L12,17.0041738 C12,18.1040728 11.1024408,19 10,19 C8.89814503,19 8,18.1016244 8,17.0041738 L8,15.8824142 L8,15.8824142 Z M20,7.99077797 C20,7.44358641 20.4438648,7 21,7 L21,7 C21.5522847,7 22,7.45097518 22,7.99077797 L22,12.009222 C22,12.5564136 21.5561352,13 21,13 L21,13 C20.4477153,13 20,12.5490248 20,12.009222 L20,7.99077797 Z M2,9.07327736 C2,7.58182645 3.07958914,6.22047888 4.53955145,5.89313711 L15.5853257,3.4165367 C17.3778646,3.01462711 19,4.31711467 19,6.15579082 L19,14.8438847 C19,16.6773517 17.3835222,17.986317 15.5853257,17.5831388 L4.53955145,15.1065384 C3.08370554,14.7801196 2,13.4192992 2,11.9263982 L2,9.07327736 Z M4,9.07327736 L4,11.9263982 C4,12.4862829 4.43746834,13.0339953 4.97711289,13.1549903 L16.0228871,15.6315907 C16.5674667,15.7536923 17,15.3999178 17,14.8438847 L17,6.15579082 C17,5.59521646 16.5625317,5.24708976 16.0228871,5.3680848 L4.97711289,7.84468521 C4.43253326,7.96678676 4,8.51573969 4,9.07327736 Z"/>
</svg>
