<svg xmlns="http://www.w3.org/2000/svg" width="24" height="24" viewBox="0 0 24 24">
  <path fill=""  d="M5,5.09887695 L5,8.90112305 C5,8.95507812 5.04426872,9 5.09887695,9 L8.90112305,9 C8.95507812,9 9,8.95573128 9,8.90112305 L9,5.09887695 C9,5.04492188 8.95573128,5 8.90112305,5 L5.09887695,5 C5.04492188,5 5,5.04426872 5,5.09887695 Z M3,5.09887695 C3,3.93788044 3.94215987,3 5.09887695,3 L8.90112305,3 C10.0621196,3 11,3.94215987 11,5.09887695 L11,8.90112305 C11,10.0621196 10.0578401,11 8.90112305,11 L5.09887695,11 C3.93788044,11 3,10.0578401 3,8.90112305 L3,5.09887695 Z M5,15.098877 L5,18.901123 C5,18.9550781 5.04426872,19 5.09887695,19 L8.90112305,19 C8.95507812,19 9,18.9557313 9,18.901123 L9,15.098877 C9,15.0449219 8.95573128,15 8.90112305,15 L5.09887695,15 C5.04492188,15 5,15.0442687 5,15.098877 Z M3,15.098877 C3,13.9378804 3.94215987,13 5.09887695,13 L8.90112305,13 C10.0621196,13 11,13.9421599 11,15.098877 L11,18.901123 C11,20.0621196 10.0578401,21 8.90112305,21 L5.09887695,21 C3.93788044,21 3,20.0578401 3,18.901123 L3,15.098877 Z M15,5.09887695 L15,8.90112305 C15,8.95507812 15.0442687,9 15.098877,9 L18.901123,9 C18.9550781,9 19,8.95573128 19,8.90112305 L19,5.09887695 C19,5.04492188 18.9557313,5 18.901123,5 L15.098877,5 C15.0449219,5 15,5.04426872 15,5.09887695 Z M13,5.09887695 C13,3.93788044 13.9421599,3 15.098877,3 L18.901123,3 C20.0621196,3 21,3.94215987 21,5.09887695 L21,8.90112305 C21,10.0621196 20.0578401,11 18.901123,11 L15.098877,11 C13.9378804,11 13,10.0578401 13,8.90112305 L13,5.09887695 Z M13,13.495389 C13,13.2217932 13.2157526,13 13.495389,13 L15.504611,13 C15.7782068,13 16,13.2157526 16,13.495389 L16,15.504611 C16,15.7782068 15.7842474,16 15.504611,16 L13.495389,16 C13.2217932,16 13,15.7842474 13,15.504611 L13,13.495389 Z M18,13.495389 C18,13.2217932 18.2157526,13 18.495389,13 L20.504611,13 C20.7782068,13 21,13.2157526 21,13.495389 L21,15.504611 C21,15.7782068 20.7842474,16 20.504611,16 L18.495389,16 C18.2217932,16 18,15.7842474 18,15.504611 L18,13.495389 Z M18,18.495389 C18,18.2217932 18.2157526,18 18.495389,18 L20.504611,18 C20.7782068,18 21,18.2157526 21,18.495389 L21,20.504611 C21,20.7782068 20.7842474,21 20.504611,21 L18.495389,21 C18.2217932,21 18,20.7842474 18,20.504611 L18,18.495389 Z M13,18.495389 C13,18.2217932 13.2157526,18 13.495389,18 L15.504611,18 C15.7782068,18 16,18.2157526 16,18.495389 L16,20.504611 C16,20.7782068 15.7842474,21 15.504611,21 L13.495389,21 C13.2217932,21 13,20.7842474 13,20.504611 L13,18.495389 Z"/>
</svg>
