<svg xmlns="http://www.w3.org/2000/svg" width="24" height="24" viewBox="0 0 24 24">
  <path fill="" d="M8.17529019,16.4426373 C10.6009211,18.8051525 14.4824966,18.7856274 16.884062,16.384062 C19.3053126,13.9628114 19.3053126,10.0371886 16.884062,7.61593801 C14.4628114,5.19468743 10.5371886,5.19468743 8.11593801,7.61593801 C7.43203677,8.29983925 6.93009988,9.11461765 6.62934021,10 L9.5,10 C10.0522847,10 10.5,10.4477153 10.5,11 C10.5,11.5522847 10.0522847,12 9.5,12 L4.5,12 C3.94771525,12 3.5,11.5522847 3.5,11 L3.5,6 C3.5,5.44771525 3.94771525,5 4.5,5 C5.05228475,5 5.5,5.44771525 5.5,6 L5.5,8.12275556 C5.85382249,7.48469926 6.30153774,6.88475376 6.84314575,6.34314575 C9.96734008,3.21895142 15.0326599,3.21895142 18.1568542,6.34314575 C21.2810486,9.46734008 21.2810486,14.5326599 18.1568542,17.6568542 C15.0326599,20.7810486 9.96734008,20.7810486 6.84314575,17.6568542 L6.8714639,17.6285361 C6.64635582,17.464943 6.5,17.1995631 6.5,16.9 C6.5,16.4029437 6.90294371,16 7.39999998,16 C7.73007871,16 8.01865521,16.1776922 8.17529019,16.4426373 Z"/>
</svg>
