<svg width="23" height="18" viewBox="0 0 23 18" fill="none" xmlns="http://www.w3.org/2000/svg">
<path fill-rule="evenodd" clip-rule="evenodd" d="M8 0C7.05573 0 6.16656 0.444583 5.6 1.2L1.1 7.2C0.3 8.26667 0.3 9.73333 1.1 10.8L5.6 16.8C6.16656 17.5554 7.05573 18 8 18H20C21.6569 18 23 16.6569 23 15V3C23 1.34315 21.6569 0 20 0H8ZM7.2 2.4C7.38885 2.14819 7.68524 2 8 2H20C20.5523 2 21 2.44772 21 3V15C21 15.5523 20.5523 16 20 16H8C7.68524 16 7.38885 15.8518 7.2 15.6L2.7 9.6C2.43333 9.24444 2.43333 8.75556 2.7 8.4L7.2 2.4ZM16.8285 12.8284C16.438 13.2189 15.8048 13.2189 15.4143 12.8284L13.0001 10.4142L10.5859 12.8284C10.1954 13.219 9.5622 13.219 9.17168 12.8284C8.78115 12.4379 8.78115 11.8047 9.17168 11.4142L11.5859 8.99999L9.17168 6.58577C8.78116 6.19524 8.78116 5.56208 9.17168 5.17156C9.56221 4.78103 10.1954 4.78103 10.5859 5.17156L13.0001 7.58578L15.4143 5.17158C15.8048 4.78106 16.438 4.78106 16.8285 5.17158C17.2191 5.56211 17.2191 6.19527 16.8285 6.5858L14.4143 8.99999L16.8285 11.4142C17.2191 11.8047 17.2191 12.4379 16.8285 12.8284Z" fill="#4360DF"/>
</svg>
