<svg xmlns="http://www.w3.org/2000/svg" width="24" height="24" viewBox="0 0 24 24">
  <path fill="" d="M9.92798871,13.8799812 L9.92798871,13.8799812 C12.1106139,13.8799812 13.8799812,12.1106139 13.8799812,9.92798871 C13.8799812,7.74536354 12.1106139,5.97599624 9.92798871,5.97599624 C7.74536354,5.97599624 5.97599624,7.74536354 5.97599624,9.92798871 C5.97599624,12.1106139 7.74536354,13.8799812 9.92798871,13.8799812 L9.92798871,13.8799812 Z M19.7118864,18.3146461 C20.0959479,18.6987076 20.0971983,19.3201438 19.7086711,19.7086711 L19.7086711,19.7086711 C19.3228338,20.0945083 18.6917146,20.0889549 18.3146461,19.7118864 L12.719254,14.1164944 C12.3351926,13.7324329 12.3339421,13.1109966 12.7224694,12.7224694 L12.7224694,12.7224694 C13.1083067,12.3366321 13.7394259,12.3421856 14.1164944,12.719254 L19.7118864,18.3146461 Z M9.92798871,15.8559774 L9.92798871,15.8559774 C6.65405095,15.8559774 4,13.2019265 4,9.92798871 C4,6.65405095 6.65405095,4 9.92798871,4 C13.2019265,4 15.8559774,6.65405095 15.8559774,9.92798871 C15.8559774,13.2019265 13.2019265,15.8559774 9.92798871,15.8559774 L9.92798871,15.8559774 Z"/>
</svg>
