<svg width="16" height="16" viewBox="0 0 16 16" fill="none" xmlns="http://www.w3.org/2000/svg">
    <path fill="" fill-rule="evenodd" clip-rule="evenodd" d="M10.7803 3C10.9365 3.00012 11.0809 3.07953 11.159 3.20831L13.9414 7.79169C14.0196 7.92059 14.0196 8.07941 13.9414 8.20831L11.159 12.7917C11.0809 12.9205 10.9365 12.9999 10.7803 13H5.21978C5.06353 12.9999 4.91922 12.9205 4.84106 12.7917L2.05865 8.20831C1.98045 8.07941 1.98045 7.92059 2.05865 7.79169L4.84106 3.20831C4.91922 3.07953 5.06353 3.00012 5.21978 3H10.7803ZM6 8C6 9.10455 6.89541 10 8 10C8.53042 10 9.03915 9.78931 9.41421 9.41418C9.78927 9.03912 10 8.53046 10 8C10 6.89545 9.10458 6 8 6C6.89541 6 6 6.89545 6 8Z"/>
</svg>
