<svg width="24px" height="24px">
    <g fill-rule="nonzero" fill="#000000">
        <path d="M13,5.41421356 L13,14 C13,14.5522847 12.5522847,15 12,15 C11.4477153,15 11,14.5522847 11,14 L11,5.41421356 L8.70710678,7.70710678 C8.31658249,8.09763107 7.68341751,8.09763107 7.29289322,7.70710678 C6.90236893,7.31658249 6.90236893,6.68341751 7.29289322,6.29289322 L11.2928932,2.29289322 C11.6834175,1.90236893 12.3165825,1.90236893 12.7071068,2.29289322 L16.7071068,6.29289322 C17.0976311,6.68341751 17.0976311,7.31658249 16.7071068,7.70710678 C16.3165825,8.09763107 15.6834175,8.09763107 15.2928932,7.70710678 L13,5.41421356 L13,5.41421356 Z M3,11 C3,10.4477153 3.44771525,10 4,10 C4.55228475,10 5,10.4477153 5,11 L5,18 C5,18.5522847 5.44771525,19 6,19 L18,19 C18.5522847,19 19,18.5522847 19,18 L19,11 C19,10.4477153 19.4477153,10 20,10 C20.5522847,10 21,10.4477153 21,11 L21,18 C21,19.6568542 19.6568542,21 18,21 L6,21 C4.34314575,21 3,19.6568542 3,18 L3,11 Z"></path>
    </g>
</svg>