<svg width="24" height="24" viewBox="0 0 24 24" fill="none" xmlns="http://www.w3.org/2000/svg">
<path fill-rule="evenodd" clip-rule="evenodd" d="M3.02088 9H11.126C11.5701 10.7252 13.1362 12 15 12C16.8638 12 18.4299 10.7252 18.874 9H20.9461C21.5282 9 22 8.55228 22 8C22 7.44772 21.5282 7 20.9461 7H18.874C18.4299 5.27477 16.8638 4 15 4C13.1362 4 11.5701 5.27477 11.126 7H3.02088C2.45706 7 2 7.44772 2 8C2 8.55228 2.45706 9 3.02088 9ZM15 6C13.8954 6 13 6.89543 13 8C13 9.10457 13.8954 10 15 10C16.1046 10 17 9.10457 17 8C17 6.89543 16.1046 6 15 6Z" fill="#939BA1"/>
<path fill-rule="evenodd" clip-rule="evenodd" d="M20.9791 15L12.8737 15C12.4297 13.2748 10.8636 12 8.99976 12C7.13592 12 5.56982 13.2748 5.12577 15L3.05388 15C2.47184 15 2 15.4477 2 16C2 16.5523 2.47184 17 3.05388 17L5.12577 17C5.56982 18.7252 7.13592 20 8.99976 20C10.8636 20 12.4297 18.7252 12.8737 17L20.9791 17C21.5429 17 22 16.5523 22 16C22 15.4477 21.5429 15 20.9791 15ZM8.99976 18C10.1043 18 10.9998 17.1046 10.9998 16C10.9998 14.8954 10.1043 14 8.99976 14C7.89519 14 6.99976 14.8954 6.99976 16C6.99976 17.1046 7.89519 18 8.99976 18Z" fill="#939BA1"/>
</svg>
