<svg xmlns="http://www.w3.org/2000/svg" width="24" height="24" viewBox="0 0 24 24">
  <path fill="" fill-rule="evenodd" d="M11.9908333,2.83333333 C6.93083333,2.83333333 2.83333333,6.94 2.83333333,12 C2.83333333,17.06 6.93083333,21.1666667 11.9908333,21.1666667 C17.06,21.1666667 21.1666667,17.06 21.1666667,12 C21.1666667,6.94 17.06,2.83333333 11.9908333,2.83333333 L11.9908333,2.83333333 Z M12,19.3333333 C7.94833333,19.3333333 4.66666667,16.0516667 4.66666667,12 C4.66666667,7.94833333 7.94833333,4.66666667 12,4.66666667 C16.0516667,4.66666667 19.3333333,7.94833333 19.3333333,12 C19.3333333,16.0516667 16.0516667,19.3333333 12,19.3333333 L12,19.3333333 Z M15.2083333,11.0833333 C15.9691667,11.0833333 16.5833333,10.4691667 16.5833333,9.70833333 C16.5833333,8.9475 15.9691667,8.33333333 15.2083333,8.33333333 C14.4475,8.33333333 13.8333333,8.9475 13.8333333,9.70833333 C13.8333333,10.4691667 14.4475,11.0833333 15.2083333,11.0833333 L15.2083333,11.0833333 Z M8.79166667,11.0833333 C9.5525,11.0833333 10.1666667,10.4691667 10.1666667,9.70833333 C10.1666667,8.9475 9.5525,8.33333333 8.79166667,8.33333333 C8.03083333,8.33333333 7.41666667,8.9475 7.41666667,9.70833333 C7.41666667,10.4691667 8.03083333,11.0833333 8.79166667,11.0833333 L8.79166667,11.0833333 Z M15.5330465,14.6132288 C16.1687926,13.8879527 15.9015413,13.3000002 14.9440105,13.3000002 L9.05598946,13.3000002 C8.09492777,13.3000002 7.8208627,13.9096537 8.46695345,14.6132288 C8.46695345,14.6132288 10,16.8000002 12,16.8000002 C14,16.8000002 15.5330465,14.6132288 15.5330465,14.6132288 Z"/>
</svg>
