<svg xmlns="http://www.w3.org/2000/svg" width="24" height="24" viewBox="0 0 24 24">
  <path fill="" d="M8.1627301,14.0101317 L6.1728618,16 L6.00861292,16 C4.34631886,16 3,14.6605615 3,12.9906311 L3,11.0093689 C3,9.3473216 4.33842904,8 6.00861292,8 L7.98839125,8 C7.9562244,8 8.1268943,7.92051066 8.10475095,7.94706676 L11.8201226,3.49129049 C13.3662965,1.63699285 16,2.56298411 16,5.00087166 L16,6.1728618 L14,8.1728618 L14,5.00087166 C14,4.44463086 13.7117555,4.34568626 13.3561879,4.77211186 L9.64081625,9.22788814 C9.28032152,9.66022277 8.54543279,10 7.98839125,10 L6.00861292,10 C5.44302112,10 5,10.4519098 5,11.0093689 L5,12.9906311 C5,13.5566468 5.45157139,14 6.00861292,14 L7.98839125,14 C8.0450243,14 8.10331841,14.0034659 8.1627301,14.0101317 Z M11.1944091,16.6353069 L13.3561879,19.2278881 C13.7166827,19.6602228 14,19.5518945 14,18.9991283 L14,13.8297161 L16,11.8297161 L16,18.9991283 C16,21.4232596 13.3776993,22.3766823 11.8201226,20.5087095 L9.77440169,18.0553144 L11.1944091,16.6353069 Z M18.5298406,5.07842379 C18.9179505,4.69031392 19.5464355,4.68954854 19.9396825,5.0827955 C20.3302068,5.47331979 20.3246745,6.11201699 19.9440542,6.49263735 L5.92731723,20.5093743 C5.53920737,20.8974842 4.91072234,20.8982495 4.51747539,20.5050026 C4.12695109,20.1144783 4.13248332,19.4757811 4.51310367,19.0951607 L18.5298406,5.07842379 Z"/>
</svg>
