<svg xmlns="http://www.w3.org/2000/svg" width="24" height="24" viewBox="0 0 24 24">
  <path fill="" d="M5,11.0093689 L5,12.9906311 C5,13.5566468 5.45157139,14 6.00861292,14 L7.98839125,14 C8.55398305,14 9.28524866,14.3456863 9.64081625,14.7721119 L13.3561879,19.2278881 C13.7166827,19.6602228 14,19.5518945 14,18.9991283 L14,5.00087166 C14,4.44463086 13.7117555,4.34568626 13.3561879,4.77211186 L9.64081625,9.22788814 C9.28032152,9.66022277 8.54543279,10 7.98839125,10 L6.00861292,10 C5.44302112,10 5,10.4519098 5,11.0093689 Z M3,11.0093689 C3,9.3473216 4.33842904,8 6.00861292,8 L7.98839125,8 C7.9562244,8 8.1268943,7.92051066 8.10475095,7.94706676 L11.8201226,3.49129049 C13.3662965,1.63699285 16,2.56298411 16,5.00087166 L16,18.9991283 C16,21.4232596 13.3776993,22.3766823 11.8201226,20.5087095 L8.10475095,16.0529332 C8.12699271,16.0796074 7.95723098,16 7.98839125,16 L6.00861292,16 C4.34631886,16 3,14.6605615 3,12.9906311 L3,11.0093689 Z M18,7.99539757 C18,7.44565467 18.4438648,7 19,7 C19.5522847,7 20,7.4556644 20,7.99539757 L20,16.0046024 C20,16.5543453 19.5561352,17 19,17 C18.4477153,17 18,16.5443356 18,16.0046024 L18,7.99539757 Z"/>
</svg>
