<svg width="24" height="24" viewBox="0 0 24 24" fill="none" xmlns="http://www.w3.org/2000/svg">
<path fill-rule="evenodd" d="M2 12C2 6.47715 6.47715 2 12 2C17.5228 2 22 6.47715 22 12C22 17.5228 17.5228 22 12 22C6.47715 22 2 17.5228 2 12ZM12 3.81818C7.48131 3.81818 3.81818 7.48131 3.81818 12C3.81818 16.5187 7.48131 20.1818 12 20.1818C16.5187 20.1818 20.1818 16.5187 20.1818 12C20.1818 7.48131 16.5187 3.81818 12 3.81818Z" fill="black"/>
<path fill-rule="evenodd" d="M11.0172 13.3462C10.9526 13.6897 11.0703 14.0571 11.3571 14.2978C11.7801 14.6529 12.4109 14.5978 12.766 14.1748L17.0319 9.28551C17.387 8.86249 17.3319 8.23172 16.9089 7.87666C16.4858 7.52159 15.8551 7.57668 15.5 7.99969L13 10.865V8.80235C13 8.35903 12.5523 7.99964 12 7.99964C11.4477 7.99964 11 8.35903 11 8.80235V13.1969C11 13.2479 11.0059 13.2978 11.0172 13.3462Z" fill="black"/>
</svg>
