<svg xmlns="http://www.w3.org/2000/svg" width="24" height="24" viewBox="-108 65.9 24 24" >
  <g>
<path fill="" d="M-89.4,75.9l-2.3,2.3c-0.4,0.4-0.4,1,0,1.4c0.4,0.4,1,0.4,1.4,0l4-4c0.2-0.2,0.3-0.4,0.3-0.6c0-0.3-0.1-0.6-0.3-0.8l-4-4
	c-0.4-0.4-1-0.4-1.4,0c-0.4,0.4-0.4,1,0,1.4l2.3,2.3H-97c-0.6,0-1,0.4-1,1c0,0.6,0.4,1,1,1H-89.4z"/>
<path fill="" d="M-102.6,81.9h7.6c0.5,0,1-0.4,1-1c0-0.6-0.4-1-1-1h-7.6l2.3-2.3c0.4-0.4,0.4-1,0-1.4c-0.4-0.4-1-0.4-1.4,0l-4,4
	c-0.2,0.2-0.3,0.5-0.3,0.8c0,0.2,0.1,0.4,0.3,0.6l4,4c0.4,0.4,1,0.4,1.4,0c0.4-0.4,0.4-1,0-1.4L-102.6,81.9z"/>
  </g>
</svg>