<svg width="20" height="20" viewBox="0 0 20 20" fill="none" xmlns="http://www.w3.org/2000/svg">
<path d="M9.57698 9.54114C10.1013 9.59762 10.6256 9.65411 11.2702 9.61696C13.017 9.51619 14.0751 8.58772 14 7.20014C13.9236 5.78838 12.5158 4.91873 11.1073 5C8.81199 5.13261 7.12408 7.21894 6.93371 9.60391C7.24541 9.5297 7.56306 9.48334 7.88292 9.46537C8.5279 9.42812 9.05244 9.48463 9.57698 9.54114Z" fill="#4360DF"/>
<path d="M5.03262 12.9308C5.10585 14.2519 6.45434 15.0661 7.8037 14.9898C10.0027 14.8659 11.6196 12.9133 11.8016 10.6813C11.5029 10.7507 11.1986 10.7941 10.8924 10.8109C10.2746 10.8458 9.77217 10.7929 9.2697 10.74C8.76744 10.6872 8.26516 10.6343 7.6477 10.6691C5.97436 10.7634 4.9606 11.6322 5.03262 12.9308Z" fill="#4360DF"/>
<path fill-rule="evenodd" clip-rule="evenodd" d="M20 10C20 15.5228 15.5228 20 10 20C7.66667 20 5.33333 20 3 20C1.34315 20 0 18.6569 0 17V10C0 4.47715 4.47715 0 10 0C15.5228 0 20 4.47715 20 10ZM18 10C18 14.4183 14.4183 18 10 18H3C2.44772 18 2 17.5523 2 17L2 10C2 5.58172 5.58172 2 10 2C14.4183 2 18 5.58172 18 10Z" fill="#4360DF"/>
</svg>
