<svg width="40" height="40" viewBox="0 0 40 40" fill="none" xmlns="http://www.w3.org/2000/svg">
<path d="M32.5871 16.0524C30.888 14.3763 28.9067 13.0785 26.6982 12.195C24.5653 11.3417 22.3117 10.9091 20 10.9091C17.6882 10.9091 15.4346 11.3417 13.3017 12.195C11.0933 13.0785 9.11198 14.3763 7.41284 16.0524C7.22599 16.2367 7.22599 16.5355 7.41284 16.7199C7.59973 16.9042 7.9026 16.9042 8.08954 16.7199C11.2709 13.5815 15.5008 11.8531 20 11.8531C24.4992 11.8531 28.7291 13.5815 31.9105 16.7199C32.004 16.812 32.1264 16.8581 32.2488 16.8581C32.3713 16.8581 32.4937 16.812 32.5872 16.7199C32.774 16.5355 32.774 16.2367 32.5871 16.0524Z" fill="#939BA1"/>
<path d="M20.0001 21.1619C18.0215 21.1619 16.1613 21.922 14.7622 23.3021C14.5754 23.4865 14.5754 23.7853 14.7622 23.9696C14.8556 24.0618 14.9781 24.1079 15.1005 24.1079C15.223 24.1079 15.3454 24.0618 15.4389 23.9696C16.6572 22.7678 18.277 22.1059 20.0001 22.1059C21.7231 22.1059 23.3429 22.7677 24.5612 23.9695C24.7481 24.1539 25.051 24.1539 25.2379 23.9695C25.4247 23.7852 25.4247 23.4864 25.2379 23.302C23.8389 21.922 21.9787 21.1619 20.0001 21.1619Z" fill="#939BA1"/>
<path d="M20.0001 16.0355C16.6334 16.0355 13.4681 17.3288 11.0875 19.6772C10.9007 19.8615 10.9007 20.1604 11.0875 20.3447C11.2744 20.529 11.5773 20.5291 11.7642 20.3447C13.9641 18.1746 16.889 16.9795 20.0001 16.9795C23.1112 16.9795 26.036 18.1746 28.236 20.3447C28.3294 20.4369 28.4518 20.483 28.5743 20.483C28.6967 20.483 28.8192 20.4369 28.9126 20.3447C29.0994 20.1604 29.0994 19.8615 28.9126 19.6772C26.5319 17.3288 23.3667 16.0355 20.0001 16.0355Z" fill="#939BA1"/>
<path d="M20 26.3077C19.2222 26.3077 18.5894 26.932 18.5894 27.6993C18.5894 28.4667 19.2222 29.0909 20 29.0909C20.7779 29.0909 21.4107 28.4666 21.4107 27.6993C21.4107 26.932 20.7779 26.3077 20 26.3077ZM20 28.1469C19.7498 28.1469 19.5463 27.9461 19.5463 27.6993C19.5463 27.4525 19.7498 27.2517 20 27.2517C20.2502 27.2517 20.4538 27.4525 20.4538 27.6993C20.4538 27.9462 20.2502 28.1469 20 28.1469Z" fill="#939BA1"/>
<circle cx="20" cy="20" r="19.5" stroke="#939BA1"/>
</svg>