<svg width="24" height="24" viewBox="0 0 24 24" fill="none" xmlns="http://www.w3.org/2000/svg">
<path fill-rule="evenodd" clip-rule="evenodd" d="M8 4C6.34315 4 5 5.34315 5 7C5 8.65685 6.34315 10 8 10C9.65685 10 11 8.65685 11 7C11 5.34315 9.65685 4 8 4ZM3 7C3 4.23858 5.23858 2 8 2C10.7614 2 13 4.23858 13 7C13 9.76142 10.7614 12 8 12C5.23858 12 3 9.76142 3 7ZM5 16C3.89543 16 3 16.8954 3 18V20C3 20.5523 2.55228 21 2 21C1.44772 21 1 20.5523 1 20V18C1 15.7909 2.79086 14 5 14H11C13.2091 14 15 15.7909 15 18V20C15 20.5523 14.5523 21 14 21C13.4477 21 13 20.5523 13 20V18C13 16.8954 12.1046 16 11 16H5Z" fill="black"/>
<path d="M21 8C21 7.44772 20.5523 7 20 7C19.4477 7 19 7.44772 19 8V10H17C16.4477 10 16 10.4477 16 11C16 11.5523 16.4477 12 17 12H19V14C19 14.5523 19.4477 15 20 15C20.5523 15 21 14.5523 21 14V12H23C23.5523 12 24 11.5523 24 11C24 10.4477 23.5523 10 23 10H21V8Z" fill="black"/>
</svg>
