<svg width="24" height="24" viewBox="0 0 24 24" fill="none" xmlns="http://www.w3.org/2000/svg">
<path d="M5.70703 5.29288C5.31665 4.90237 4.68335 4.90237 4.29297 5.29288C3.90234 5.6835 3.90234 6.31656 4.29297 6.70718L9.58569 12L4.29297 17.2929C3.90234 17.6835 3.90234 18.3166 4.29297 18.7072C4.68335 19.0977 5.31665 19.0977 5.70703 18.7072L11.707 12.7072C12.0977 12.3166 12.0977 11.6835 11.707 11.2929L5.70703 5.29288Z" fill="black"/>
<path d="M13 17C12.4478 17 12 17.4478 12 18C12 18.5523 12.4478 19 13 19H19C19.5522 19 20 18.5523 20 18C20 17.4478 19.5522 17 19 17H13Z" fill="black"/>
</svg>
