<svg width="24" height="24" viewBox="0 0 24 24" fill="none" xmlns="http://www.w3.org/2000/svg">
<path fill-rule="evenodd" clip-rule="evenodd" d="M13 9.37802L15.3191 11.7083C15.6992 12.0903 16.3275 12.096 16.7115 11.7101C17.0982 11.3215 17.0947 10.6978 16.7098 10.3109L12.7099 6.29165C12.5414 6.12231 12.3241 6.02694 12.101 6.00684C11.8115 5.97242 11.51 6.06792 11.2873 6.29165L7.28743 10.3109C6.90728 10.6929 6.90169 11.3242 7.28571 11.7101C7.67242 12.0987 8.29314 12.0952 8.67811 11.7084L11 9.3752L11 17.0044C11 17.5552 11.4477 18 12 18C12.5561 18 13 17.5543 13 17.0044L13 9.37802Z" fill="black"/>
</svg>
