<svg width="24" height="24" viewBox="0 0 24 24" fill="none" xmlns="http://www.w3.org/2000/svg">
<path fill-rule="evenodd" clip-rule="evenodd" d="M14.622 13L12.2916 15.3191C11.9097 15.6992 11.904 16.3275 12.2899 16.7115C12.6785 17.0982 13.3022 17.0947 13.6891 16.7098L17.7084 12.7099C17.8777 12.5414 17.9731 12.3241 17.9932 12.101C18.0276 11.8115 17.9321 11.51 17.7084 11.2873L13.6891 7.28743C13.3071 6.90728 12.6758 6.90169 12.2899 7.28571C11.9013 7.67242 11.9048 8.29314 12.2916 8.67811L14.6248 11H6.99558C6.44484 11 6 11.4477 6 12C6 12.5561 6.44574 13 6.99558 13H14.622Z" fill="black"/>
</svg>
