<svg width="24" height="24" viewBox="0 0 24 24" fill="none" xmlns="http://www.w3.org/2000/svg">
<path fill-rule="evenodd" clip-rule="evenodd" d="M9.34577 11.0477L11.8333 8.62758C12.2104 8.26074 12.2141 7.65332 11.8313 7.28088C11.4458 6.90586 10.8287 6.90756 10.447 7.27888L6.28397 11.329C6.09577 11.5121 6.00059 11.7551 6.00005 11.9989C5.99762 12.246 6.09347 12.4883 6.28397 12.6737L10.447 16.7238C10.8241 17.0906 11.4485 17.0942 11.8313 16.7218C12.2168 16.3467 12.215 15.7464 11.8333 15.3751L9.34577 12.955H17.0242C17.5533 12.955 18 12.528 18 12.0013C18 11.471 17.5631 11.0477 17.0242 11.0477H9.34577Z" fill="black"/>
</svg>
