<svg width="24" height="24" viewBox="0 0 24 24" fill="none" xmlns="http://www.w3.org/2000/svg">
<path fill-rule="evenodd" clip-rule="evenodd" d="M8 3C7.05573 3 6.16656 3.44458 5.6 4.2L1.1 10.2C0.3 11.2667 0.3 12.7333 1.1 13.8L5.6 19.8C6.16656 20.5554 7.05573 21 8 21H20C21.6569 21 23 19.6569 23 18V6C23 4.34315 21.6569 3 20 3H8ZM7.2 5.4C7.38885 5.14819 7.68524 5 8 5H20C20.5523 5 21 5.44772 21 6V18C21 18.5523 20.5523 19 20 19H8C7.68524 19 7.38885 18.8518 7.2 18.6L2.7 12.6C2.43333 12.2444 2.43333 11.7556 2.7 11.4L7.2 5.4ZM16.8285 15.8284C16.438 16.2189 15.8048 16.2189 15.4143 15.8284L13.0001 13.4142L10.5859 15.8284C10.1954 16.219 9.5622 16.219 9.17168 15.8284C8.78115 15.4379 8.78115 14.8047 9.17168 14.4142L11.5859 12L9.17168 9.58577C8.78116 9.19524 8.78116 8.56208 9.17168 8.17156C9.56221 7.78103 10.1954 7.78103 10.5859 8.17156L13.0001 10.5858L15.4143 8.17158C15.8048 7.78106 16.438 7.78106 16.8285 8.17158C17.2191 8.56211 17.2191 9.19527 16.8285 9.5858L14.4143 12L16.8285 14.4142C17.2191 14.8047 17.2191 15.4379 16.8285 15.8284Z" fill="black"/>
</svg>
