<svg width="24" height="24" viewBox="0 0 24 24" fill="none" xmlns="http://www.w3.org/2000/svg">
<path d="M12 22C6.47715 22 2 17.5228 2 12C2 6.47715 6.47715 2 12 2C17.5228 2 22 6.47715 22 12C22 17.5228 17.5228 22 12 22ZM12 20C16.4183 20 20 16.4183 20 12C20 7.58172 16.4183 4 12 4C7.58172 4 4 7.58172 4 12C4 16.4183 7.58172 20 12 20ZM10.8826 10.8826L9.76514 14.2349L13.1174 13.1174L14.2349 9.76514L10.8826 10.8826ZM16.7647 8.50023L14.8567 14.2242C14.7571 14.5228 14.5228 14.7571 14.2242 14.8567L8.50023 16.7647C7.71847 17.0253 6.97473 16.2815 7.23532 15.4998L9.14332 9.77577C9.24285 9.47717 9.47717 9.24285 9.77577 9.14332L15.4998 7.23532C16.2815 6.97473 17.0253 7.71847 16.7647 8.50023Z" fill="black"/>
</svg>
