<svg width="24" height="24" viewBox="0 0 24 24" fill="none" xmlns="http://www.w3.org/2000/svg">
<path d="M12.6001 4.2C12.2445 3.93333 11.7556 3.93333 11.4001 4.2L2.60006 10.8C2.15823 11.1314 1.53143 11.0418 1.20006 10.6C0.868688 10.1582 0.958231 9.53137 1.40006 9.2L10.2001 2.6C11.2667 1.8 12.7334 1.8 13.8001 2.6L22.6001 9.2C23.0419 9.53137 23.1314 10.1582 22.8001 10.6C22.4687 11.0418 21.8419 11.1314 21.4001 10.8L12.6001 4.2Z" fill="black"/>
<path fill-rule="evenodd" clip-rule="evenodd" d="M4 12.5C4.55228 12.5 5 12.9477 5 13.5V17C5 17.5523 5.44772 18 6 18H8V15C8 12.7909 9.79086 11 12 11C14.2091 11 16 12.7909 16 15V18H18C18.5523 18 19 17.5523 19 17V13.5C19 12.9477 19.4477 12.5 20 12.5C20.5523 12.5 21 12.9477 21 13.5V17C21 18.6569 19.6569 20 18 20H6C4.34315 20 3 18.6569 3 17V13.5C3 12.9477 3.44772 12.5 4 12.5ZM14 18V15C14 13.8954 13.1046 13 12 13C10.8954 13 10 13.8954 10 15V18H14Z" fill="black"/>
</svg>
