<svg width="24" height="24" viewBox="0 0 24 24" fill="none" xmlns="http://www.w3.org/2000/svg">
<path fill-rule="evenodd" clip-rule="evenodd" d="M8.82065 3H14.6459C15.3676 3.00331 15.9403 3.4848 16.1598 4.09552L16.5945 5.28571H18.9212C20.7015 5.28571 22 6.85613 22 8.57143V17.7143C22 19.4296 20.7015 21 18.9212 21H5.0788C3.29847 21 2 19.4296 2 17.7143V8.57143C2 6.85613 3.29847 5.28571 5.0788 5.28571H6.86748L7.30211 4.09558C7.52164 3.48483 8.09434 3.00332 8.81607 3.00001L8.82065 3ZM9.10101 5L8.26629 7.28571H5.0788C4.5774 7.28571 4 7.77788 4 8.57143V17.7143C4 18.5078 4.5774 19 5.0788 19H18.9212C19.4226 19 20 18.5078 20 17.7143V8.57143C20 7.77788 19.4226 7.28571 18.9212 7.28571H15.1957L14.3609 5H9.10101ZM11.9439 11C10.8453 11 10 11.8692 10 13C10 14.1308 10.8453 15 11.9439 15C13.0913 15 14 14.0816 14 13C14 11.9184 13.0913 11 11.9439 11ZM8 13C8 10.8283 9.67818 9 11.9439 9C14.1607 9 16 10.7791 16 13C16 15.2209 14.1607 17 11.9439 17C9.67818 17 8 15.1717 8 13Z" fill="black"/>
</svg>
