<svg width="24" height="24" viewBox="0 0 24 24" fill="none" xmlns="http://www.w3.org/2000/svg">
<path d="M8.96875 15.25C8.77637 15.5834 9.01685 16 9.40186 16H10.5564C10.7351 16 10.9001 15.9047 10.9895 15.75L15.0308 8.75C15.2231 8.41663 14.9827 8 14.5979 8H13.4434C13.2649 8 13.0996 8.09534 13.0105 8.25L8.96875 15.25Z" fill="black"/>
<path fill-rule="evenodd" clip-rule="evenodd" d="M8 4C5.79077 4 4 5.79089 4 8V16C4 18.2091 5.79077 20 8 20H16C18.2092 20 20 18.2091 20 16V8C20 5.79089 18.2092 4 16 4H8ZM6 8C6 6.89539 6.89551 6 8 6H16C17.1045 6 18 6.89539 18 8V16C18 17.1046 17.1045 18 16 18H8C6.89551 18 6 17.1046 6 16V8Z" fill="black"/>
</svg>
