<svg width="24" height="24" viewBox="0 0 24 24" fill="none" xmlns="http://www.w3.org/2000/svg">
<path fill-rule="evenodd" clip-rule="evenodd" d="M12 3C10.3431 3 9 4.34315 9 6V12C9 13.6569 10.3431 15 12 15H18C19.6569 15 21 13.6569 21 12V6C21 4.34315 19.6569 3 18 3H12ZM11 6C11 5.44772 11.4477 5 12 5H18C18.5523 5 19 5.44772 19 6V12C19 12.5523 18.5523 13 18 13H12C11.4477 13 11 12.5523 11 12V6Z" fill="black"/>
<path d="M6 9H7V11H6C5.44772 11 5 11.4477 5 12V18C5 18.5523 5.44772 19 6 19H12C12.5523 19 13 18.5523 13 18V17H15V18C15 19.6569 13.6569 21 12 21H6C4.34315 21 3 19.6569 3 18V12C3 10.3431 4.34315 9 6 9Z" fill="black"/>
</svg>
