<svg width="24" height="24" viewBox="0 0 24 24" fill="none" xmlns="http://www.w3.org/2000/svg">
<path d="M12.184 6H9.84583C9.23067 6 8.91984 6.03348 8.75135 6.06602C8.63018 6.08942 8.57605 6.11185 8.47793 6.16433C8.33758 6.23939 8.23939 6.33758 8.16433 6.47793C8.11185 6.57605 8.08942 6.63018 8.06602 6.75135C8.03348 6.91984 8 7.23067 8 7.84583V9H6V7.84583C6 6.50855 6.13924 6.02362 6.4007 5.53473C6.66216 5.04584 7.04584 4.66216 7.53473 4.4007C8.02362 4.13924 8.50855 4 9.84583 4H12.184C13.9152 4 15.2782 4.32489 16.419 4.93496C17.5597 5.54504 18.455 6.4403 19.065 7.58104C19.6751 8.72178 20 10.0848 20 11.816V12.184C20 13.9152 19.6751 15.2782 19.065 16.419C18.455 17.5597 17.5597 18.455 16.419 19.065C15.2782 19.6751 13.9152 20 12.184 20H9.84583C8.50855 20 8.02362 19.8608 7.53473 19.5993C7.04584 19.3378 6.66216 18.9542 6.4007 18.4653C6.13924 17.9764 6 17.4915 6 16.1542V15H8V16.1542C8 16.7693 8.03348 17.0802 8.06602 17.2487C8.08942 17.3698 8.11185 17.4239 8.16433 17.5221C8.23939 17.6624 8.33758 17.7606 8.47793 17.8357C8.57605 17.8882 8.63018 17.9106 8.75134 17.934C8.91984 17.9665 9.23067 18 9.84583 18H12.184C13.6558 18 14.681 17.7265 15.4758 17.3014C16.268 16.8777 16.8777 16.268 17.3014 15.4758C17.7265 14.681 18 13.6558 18 12.184V11.816C18 10.3442 17.7265 9.31902 17.3014 8.52424C16.8777 7.73203 16.268 7.12227 15.4758 6.69859C14.681 6.27354 13.6558 6 12.184 6Z" fill="black"/>
<path d="M5 11C4.44772 11 4 11.4477 4 12C4 12.5523 4.44772 13 5 13H11C11.5523 13 12 12.5523 12 12C12 11.4477 11.5523 11 11 11H5Z" fill="black"/>
</svg>
