<svg width="24" height="24" viewBox="0 0 24 24" fill="none" xmlns="http://www.w3.org/2000/svg">
<path fill-rule="evenodd" clip-rule="evenodd" d="M9.59141 4.75746C9.7027 4.3123 10.1027 4 10.5616 4H13.4384C13.8973 4 14.2973 4.3123 14.4086 4.75746L14.7192 6H9.28078L9.59141 4.75746ZM7.97909 8C7.99357 8.00032 8.00802 8.00031 8.02242 8H15.9776C15.992 8.00031 16.0064 8.00032 16.0209 8H20C20.5523 8 21 7.55228 21 7C21 6.44772 20.5523 6 20 6H16.7808L16.3489 4.27239C16.015 2.93689 14.8151 2 13.4384 2H10.5616C9.18495 2 7.985 2.93689 7.65113 4.27239L7.21922 6H4C3.44772 6 3 6.44772 3 7C3 7.55228 3.44772 8 4 8H7.97909ZM5.9005 10.005C6.45004 9.95001 6.94008 10.351 6.99504 10.9005L7.81494 19.0995C7.86606 19.6107 8.29622 20 8.80998 20H15.19C15.7038 20 16.1339 19.6107 16.1851 19.0995L17.005 10.9005C17.0599 10.351 17.55 9.95001 18.0995 10.005C18.649 10.0599 19.05 10.55 18.995 11.0995L18.1751 19.2985C18.0218 20.8321 16.7313 22 15.19 22H8.80998C7.26872 22 5.97822 20.8321 5.82486 19.2985L5.00496 11.0995C4.95001 10.55 5.35095 10.0599 5.9005 10.005Z" fill="black"/>
</svg>
