<svg width="24" height="24" viewBox="0 0 24 24" fill="none" xmlns="http://www.w3.org/2000/svg">
<path fill-rule="evenodd" clip-rule="evenodd" d="M6 5C4.34315 5 3 6.34315 3 8C3 9.02458 3.00001 10.0492 3.00002 11.0738C3.00004 13.0492 3.00007 15.0246 3.00001 17H2C1.44772 17 1 17.4477 1 18C1 18.5523 1.44772 19 2 19H2.99992H21H22C22.5523 19 23 18.5523 23 18C23 17.4477 22.5523 17 22 17H21V8C21 6.34315 19.6569 5 18 5H6ZM19 17V8C19 7.44772 18.5523 7 18 7H6C5.44772 7 5 7.44772 5 8V17H19Z" fill="black"/>
</svg>
