<svg width="24" height="24" viewBox="0 0 24 24" fill="none" xmlns="http://www.w3.org/2000/svg">
<path fill-rule="evenodd" clip-rule="evenodd" d="M19.0606 2.64645C18.4749 2.06066 17.5251 2.06066 16.9393 2.64645L9.88046 9.70532C9.36783 10.218 9.00415 10.8603 8.82831 11.5636L8.02985 14.7575C7.94464 15.0982 8.04449 15.4587 8.29288 15.7071C8.54126 15.9555 8.90176 16.0553 9.24252 15.9701L12.4364 15.1717C13.1397 14.9958 13.782 14.6322 14.2947 14.1195L21.3535 7.06066C21.9393 6.47487 21.9393 5.52513 21.3535 4.93934L19.0606 2.64645ZM17.8232 4.59099C17.9208 4.49336 18.0791 4.49336 18.1768 4.59099L19.409 5.82322C19.5066 5.92086 19.5066 6.07915 19.409 6.17678L12.8805 12.7053C12.6241 12.9616 12.303 13.1435 11.9513 13.2314L10.7786 13.5246C10.5955 13.5703 10.4297 13.4045 10.4754 13.2214L10.7686 12.0487C10.8565 11.697 11.0384 11.3759 11.2947 11.1195L17.8232 4.59099Z" fill="black"/>
<path d="M6 7C6 6.44772 6.44772 6 7 6H10C10.5523 6 11 5.55229 11 5C11 4.44772 10.5523 4 10 4H7C5.34314 4 4 5.34315 4 7V17C4 18.6569 5.34314 20 7 20H17C18.6569 20 20 18.6569 20 17V14C20 13.4477 19.5523 13 19 13C18.4477 13 18 13.4477 18 14V17C18 17.5523 17.5523 18 17 18H7C6.44772 18 6 17.5523 6 17V7Z" fill="black"/>
</svg>
