<svg width="24" height="24" viewBox="0 0 24 24" fill="none" xmlns="http://www.w3.org/2000/svg">
<path fill-rule="evenodd" clip-rule="evenodd" d="M19 7H5C4.44772 7 4 7.44772 4 8C4 8.55228 4.44772 9 5 9H19C19.5523 9 20 8.55228 20 8C20 7.44772 19.5523 7 19 7ZM17 11H7C6.44772 11 6 11.4477 6 12C6 12.5523 6.44772 13 7 13H17C17.5523 13 18 12.5523 18 12C18 11.4477 17.5523 11 17 11ZM10 15H14C14.5523 15 15 15.4477 15 16C15 16.5523 14.5523 17 14 17H10C9.44772 17 9 16.5523 9 16C9 15.4477 9.44772 15 10 15Z" fill="black"/>
</svg>
