<svg width="24" height="24" viewBox="0 0 24 24" fill="none" xmlns="http://www.w3.org/2000/svg">
<path d="M9.45195 13.7537L7.2628 12.9529C6.35513 12.6209 5.88848 11.6159 6.22051 10.7082C6.26559 10.585 6.32437 10.4673 6.39576 10.3572L12.7426 1.57132C13.1741 0.905892 14.2085 1.27836 14.1168 2.06616L13.2038 8.90766C13.1909 9.01831 13.2528 9.12413 13.3555 9.16716L16.3685 10.4291C17.2599 10.8025 17.6799 11.8278 17.3065 12.7193C17.2769 12.79 17.2427 12.8588 17.204 12.925L11.3982 21.8775C11.0052 22.5512 9.97273 22.252 10.0009 21.4725L10.2717 14.9728C10.2912 14.4318 9.96034 13.9397 9.45195 13.7537Z" fill="black"/>
</svg>
