<svg width="24" height="24" viewBox="0 0 24 24" fill="none" xmlns="http://www.w3.org/2000/svg">
<path fill-rule="evenodd" clip-rule="evenodd" d="M11 8C11 10.2091 9.20921 12 6.99998 12C4.79075 12 2.99998 10.2091 2.99998 8C2.99998 5.79089 4.79075 4 6.99998 4C9.20921 4 11 5.79089 11 8ZM8.99998 8C8.99998 9.10461 8.10448 10 6.99998 10C5.89549 10 4.99998 9.10461 4.99998 8C4.99998 6.89539 5.89549 6 6.99998 6C8.10448 6 8.99998 6.89539 8.99998 8Z" fill="black"/>
<path fill-rule="evenodd" clip-rule="evenodd" d="M21 11C21 13.2091 19.2092 15 17 15C14.7908 15 13 13.2091 13 11C13 8.79089 14.7908 7 17 7C19.2092 7 21 8.79089 21 11ZM19 11C19 12.1046 18.1045 13 17 13C15.8955 13 15 12.1046 15 11C15 9.89539 15.8955 9 17 9C18.1045 9 19 9.89539 19 11Z" fill="black"/>
<path d="M2.55199 16.9336L2.21336 16.6343C1.86693 16.3281 1.87718 15.7845 2.23509 15.4918L2.63573 15.1639C3.74315 14.4288 5.07127 14.0005 6.49998 14H7.49998C8.92943 14 10.2585 14.4285 11.3664 15.1639L11.7671 15.4918C12.125 15.7845 12.1352 16.3281 11.7888 16.6343L11.4502 16.9336C11.2036 17.1515 10.844 17.1832 10.5632 17.0121L9.99998 16.6688C9.26463 16.2435 8.41063 16 7.49998 16H6.50218C5.59154 16 4.73753 16.2435 4.00218 16.6688L3.43895 17.0121C3.15819 17.1832 2.79857 17.1515 2.55199 16.9336Z" fill="black"/>
<path d="M12.052 19.9336L11.7134 19.6343C11.3669 19.3281 11.3772 18.7845 11.7351 18.4918L12.1357 18.1639C13.2436 17.4285 14.5727 17 16.0022 17H18.0022C19.4316 17 20.7607 17.4285 21.8686 18.1639L22.2693 18.4918C22.6272 18.7845 22.6374 19.3281 22.291 19.6343L21.9524 19.9336C21.9128 19.9686 21.8701 19.9989 21.8254 20.0242C21.7868 20.046 21.7468 20.0642 21.7058 20.0787C21.602 20.1154 21.4917 20.1288 21.3826 20.1182C21.2727 20.1074 21.164 20.0723 21.0654 20.0121L20.5022 19.6688C19.7668 19.2435 18.9128 19 18.0022 19H16.0022C15.0915 19 14.2375 19.2435 13.5022 19.6688L12.9389 20.0121C12.6582 20.1832 12.2986 20.1515 12.052 19.9336Z" fill="black"/>
</svg>
