<svg width="24" height="24" viewBox="0 0 24 24" fill="none" xmlns="http://www.w3.org/2000/svg">
<path d="M13.25 17.25C13.25 17.8023 12.8023 18.25 12.25 18.25H11.75C11.1977 18.25 10.75 17.8023 10.75 17.25V16.75C10.75 16.1977 11.1977 15.75 11.75 15.75H12.25C12.8023 15.75 13.25 16.1977 13.25 16.75V17.25Z" fill="black"/>
<path d="M10.5858 8.58579C10.9488 8.22276 11.4474 8 12 8C13.1046 8 14 8.89543 14 10C14 11.1046 13.1046 12 12 12C11.4477 12 11 12.4477 11 13C11 13.5523 11.4477 14 12 14C14.2091 14 16 12.2091 16 10C16 7.79086 14.2091 6 12 6C10.8957 6 9.89433 6.44881 9.17157 7.17157C8.78105 7.5621 8.78105 8.19526 9.17157 8.58579C9.56209 8.97631 10.1953 8.97631 10.5858 8.58579Z" fill="black"/>
<path fill-rule="evenodd" clip-rule="evenodd" d="M22 12C22 17.5228 17.5228 22 12 22C6.47716 22 2 17.5228 2 12C2 6.47715 6.47716 2 12 2C17.5228 2 22 6.47715 22 12ZM12 20C16.4183 20 20 16.4183 20 12C20 7.58172 16.4183 4 12 4C7.58173 4 4 7.58172 4 12C4 16.4183 7.58173 20 12 20Z" fill="black"/>
</svg>
