<svg width="24" height="24" viewBox="0 0 24 24" fill="none" xmlns="http://www.w3.org/2000/svg">
<path fill-rule="evenodd" clip-rule="evenodd" d="M16 12C16 14.2091 14.2092 16 12 16C9.79077 16 8 14.2091 8 12C8 9.79089 9.79077 8 12 8C14.2092 8 16 9.79089 16 12ZM14 12C14 13.1046 13.1045 14 12 14C10.8955 14 10 13.1046 10 12C10 10.8954 10.8955 10 12 10C13.1045 10 14 10.8954 14 12Z" fill="black"/>
<path fill-rule="evenodd" clip-rule="evenodd" d="M22 12C22 17.5228 17.5229 22 12 22C6.47705 22 2 17.5228 2 12C2 6.47717 6.47705 2 12 2C17.5229 2 22 6.47717 22 12ZM20 12C20 16.4183 16.4182 20 12 20C7.58179 20 4 16.4183 4 12C4 7.58167 7.58179 4 12 4C16.4182 4 20 7.58167 20 12Z" fill="black"/>
</svg>
