<svg width="24" height="24" viewBox="0 0 24 24" fill="none" xmlns="http://www.w3.org/2000/svg">
<path d="M13 15.9513C13 16.5035 12.5522 16.9513 12 16.9513C11.4478 16.9513 11 16.5035 11 15.9513V11.0304C11 11.0304 11 10 12 10C12.8345 10 13 10.8843 13 11.0304V15.9513Z" fill="black"/>
<path d="M13 8C13 8.55225 12.5522 9 12 9C11.4478 9 11 8.55225 11 8C11 7.44775 11.4478 7 12 7C12.5522 7 13 7.44775 13 8Z" fill="black"/>
<path fill-rule="evenodd" clip-rule="evenodd" d="M2 12C2 17.5228 6.47705 22 12 22C17.5229 22 22 17.5228 22 12C22 6.47717 17.5229 2 12 2C6.47705 2 2 6.47717 2 12ZM20 12C20 16.4183 16.4182 20 12 20C7.58179 20 4 16.4183 4 12C4 7.58167 7.58179 4 12 4C16.4182 4 20 7.58167 20 12Z" fill="black"/>
</svg>
