<svg width="24" height="24" viewBox="0 0 24 24" fill="none" xmlns="http://www.w3.org/2000/svg">
<mask id="path-1-inside-1" fill="white">
<path fill-rule="evenodd" clip-rule="evenodd" d="M20 6H4C3.44772 6 3 6.44772 3 7V17C3 17.5523 3.44772 18 4 18H20C20.5523 18 21 17.5523 21 17V7C21 6.44772 20.5523 6 20 6ZM4 4C2.34315 4 1 5.34315 1 7V17C1 18.6569 2.34315 20 4 20H20C21.6569 20 23 18.6569 23 17V7C23 5.34315 21.6569 4 20 4H4Z"/>
</mask>
<path d="M4 8H20V4H4V8ZM5 7C5 7.55228 4.55228 8 4 8V4C2.34315 4 1 5.34315 1 7H5ZM5 17V7H1V17H5ZM4 16C4.55228 16 5 16.4477 5 17H1C1 18.6569 2.34315 20 4 20V16ZM20 16H4V20H20V16ZM19 17C19 16.4477 19.4477 16 20 16V20C21.6569 20 23 18.6569 23 17H19ZM19 7V17H23V7H19ZM20 8C19.4477 8 19 7.55229 19 7H23C23 5.34314 21.6569 4 20 4V8ZM3 7C3 6.44772 3.44772 6 4 6V2C1.23858 2 -1 4.23858 -1 7H3ZM3 17V7H-1V17H3ZM4 18C3.44772 18 3 17.5523 3 17H-1C-1 19.7614 1.23858 22 4 22V18ZM20 18H4V22H20V18ZM21 17C21 17.5523 20.5523 18 20 18V22C22.7614 22 25 19.7614 25 17H21ZM21 7V17H25V7H21ZM20 6C20.5523 6 21 6.44772 21 7H25C25 4.23858 22.7614 2 20 2V6ZM4 6H20V2H4V6Z" fill="black" mask="url(#path-1-inside-1)"/>
<rect x="5" y="10" width="4" height="4" rx="1" fill="black"/>
</svg>
