<svg fill="none" height="24" viewBox="0 0 24 24" width="24" xmlns="http://www.w3.org/2000/svg"><path clip-rule="evenodd" d="m12 22c5.5228 0 10-4.4772 10-10 0-5.52285-4.4772-10-10-10-5.52285 0-10 4.47715-10 10 0 5.5228 4.47715 10 10 10zm7.9381-11c-.3381-2.7113-2.0329-5.00126-4.3837-6.16901.065.13023.1276.26332.1878.39891.6898 1.55201 1.1314 3.56607 1.2345 5.7701zm0 2c-.3381 2.7113-2.0329 5.0013-4.3837 6.169.065-.1302.1276-.2633.1878-.3989.6898-1.552 1.1314-3.5661 1.2345-5.7701zm-4.9638-2c-.1017-1.96653-.4982-3.69454-1.0597-4.95782-.328-.73796-.6926-1.27326-1.047-1.61052-.3492-.33236-.6407-.43166-.8676-.43166s-.5184.0993-.8676.43166c-.3544.33726-.719.87256-1.047 1.61052-.56148 1.26328-.95804 2.99129-1.05973 4.95782zm-5.94863 2h5.94863c-.1017 1.9665-.4982 3.6945-1.0597 4.9578-.328.738-.6926 1.2733-1.047 1.6105-.3492.3324-.6407.4317-.8676.4317s-.5184-.0993-.8676-.4317c-.3544-.3372-.719-.8725-1.047-1.6105-.56148-1.2633-.95804-2.9913-1.05973-4.9578zm-2.00239-2c.10315-2.20403.5447-4.21809 1.23448-5.7701.06026-.13559.12288-.26868.18785-.39891-2.35076 1.16775-4.04562 3.45771-4.38372 6.16901zm-2.96139 2h2.96139c.10315 2.204.5447 4.2181 1.23448 5.7701.06026.1356.12288.2687.18785.3989-2.35076-1.1677-4.04562-3.4577-4.38372-6.169z" fill="#000" fill-rule="evenodd"/></svg>