<svg width="24" height="24" viewBox="0 0 24 24" fill="none" xmlns="http://www.w3.org/2000/svg">
<path d="M13.207 6.20711L13.8786 5.53554C15.0502 4.36397 16.9497 4.36397 18.1212 5.53554L18.4644 5.87868C19.6359 7.05026 19.6359 8.94975 18.4644 10.1213L15.6212 12.9645C14.4497 14.136 12.5502 14.136 11.3786 12.9645L11.207 12.7929C10.8165 12.4024 10.1833 12.4024 9.79281 12.7929C9.40228 13.1834 9.40228 13.8166 9.79281 14.2071L9.96438 14.3787C11.917 16.3313 15.0828 16.3313 17.0354 14.3787L19.8786 11.5355C21.8312 9.58292 21.8312 6.41709 19.8786 4.46447L19.5354 4.12133C17.5828 2.1687 14.417 2.16871 12.4644 4.12133L11.7928 4.7929C11.4023 5.18342 11.4023 5.81659 11.7928 6.20711C12.1833 6.59764 12.8165 6.59763 13.207 6.20711Z" fill="black"/>
<path d="M4.12123 12.4645C2.16861 14.4171 2.16861 17.5829 4.12123 19.5355L4.46438 19.8787C6.417 21.8313 9.58282 21.8313 11.5354 19.8787L12.207 19.2071C12.5975 18.8166 12.5975 18.1834 12.207 17.7929C11.8165 17.4024 11.1833 17.4024 10.7928 17.7929L10.1212 18.4645C8.94966 19.636 7.05017 19.636 5.87859 18.4645L5.53545 18.1213C4.36388 16.9498 4.36388 15.0503 5.53545 13.8787L8.37859 11.0355C9.55017 9.86397 11.4497 9.86397 12.6212 11.0355L12.7928 11.2071C13.1833 11.5976 13.8165 11.5976 14.207 11.2071C14.5975 10.8166 14.5975 10.1834 14.207 9.7929L14.0354 9.62132C12.0828 7.6687 8.917 7.6687 6.96438 9.62132L4.12123 12.4645Z" fill="black"/>
</svg>
