<svg width="24" height="24" viewBox="0 0 24 24" fill="none" xmlns="http://www.w3.org/2000/svg">
<path d="M12 2C11.4477 2 11 2.44772 11 3V12C11 12.5523 11.4477 13 12 13C12.5523 13 13 12.5523 13 12V3C13 2.44772 12.5523 2 12 2Z" fill="black"/>
<path d="M7.05025 7.05025C7.44078 6.65972 7.44078 6.02656 7.05025 5.63603C6.65973 5.24551 6.02656 5.24551 5.63604 5.63603C4.00845 7.26362 3 9.51499 3 12C3 16.9706 7.02944 21 12 21C16.9706 21 21 16.9706 21 12C21 9.51499 19.9916 7.26363 18.364 5.63604C17.9734 5.24552 17.3403 5.24552 16.9498 5.63604C16.5592 6.02656 16.5592 6.65973 16.9498 7.05025C18.2176 8.3181 19 10.0667 19 12C19 15.866 15.866 19 12 19C8.13401 19 5 15.866 5 12C5 10.0667 5.78241 8.31809 7.05025 7.05025Z" fill="black"/>
</svg>
