<svg width="24" height="24" viewBox="0 0 24 24" fill="none" xmlns="http://www.w3.org/2000/svg">
<path fill-rule="evenodd" clip-rule="evenodd" d="M8.85498 13C8.4248 14.4457 7.08569 15.5 5.5 15.5C3.56689 15.5 2 13.933 2 12C2 10.067 3.56689 8.5 5.5 8.5C7.08569 8.5 8.4248 9.55432 8.85498 11H15.145C15.5752 9.55432 16.9143 8.5 18.5 8.5C20.4331 8.5 22 10.067 22 12C22 13.933 20.4331 15.5 18.5 15.5C16.9143 15.5 15.5752 14.4457 15.145 13H8.85498ZM5.5 13.5C6.32837 13.5 7 12.8284 7 12C7 11.1716 6.32837 10.5 5.5 10.5C4.67163 10.5 4 11.1716 4 12C4 12.8284 4.67163 13.5 5.5 13.5ZM18.5 13.5C19.3284 13.5 20 12.8284 20 12C20 11.1716 19.3284 10.5 18.5 10.5C17.6716 10.5 17 11.1716 17 12C17 12.8284 17.6716 13.5 18.5 13.5Z" fill="black"/>
</svg>
