<svg width="24" height="24" viewBox="0 0 24 24" fill="none" xmlns="http://www.w3.org/2000/svg">
<path fill-rule="evenodd" clip-rule="evenodd" d="M8 4C6.34315 4 5 5.34315 5 7C5 8.65685 6.34315 10 8 10C9.65685 10 11 8.65685 11 7C11 5.34315 9.65685 4 8 4ZM3 7C3 4.23858 5.23858 2 8 2C10.7614 2 13 4.23858 13 7C13 9.76142 10.7614 12 8 12C5.23858 12 3 9.76142 3 7ZM5 16C3.89543 16 3 16.8954 3 18V20C3 20.5523 2.55228 21 2 21C1.44772 21 1 20.5523 1 20V18C1 15.7909 2.79086 14 5 14H11C13.2091 14 15 15.7909 15 18V20C15 20.5523 14.5523 21 14 21C13.4477 21 13 20.5523 13 20V18C13 16.8954 12.1046 16 11 16H5Z" fill="black"/>
<path d="M19.6402 7.23178C19.2694 6.92274 18.7307 6.92274 18.3598 7.23178L15.3598 9.73178C14.9356 10.0853 14.8782 10.7159 15.2318 11.1402C15.5854 11.5645 16.2159 11.6218 16.6402 11.2682L18 10.1351V15C18 15.5523 18.4477 16 19 16C19.5523 16 20 15.5523 20 15V10.135L21.3598 11.2682C21.7841 11.6218 22.4147 11.5645 22.7682 11.1402C23.1218 10.7159 23.0645 10.0853 22.6402 9.73178L19.6402 7.23178Z" fill="black"/>
</svg>
