<svg width="24" height="24" viewBox="0 0 24 24" fill="none" xmlns="http://www.w3.org/2000/svg">
<path d="M5 4C4.44772 4 4 4.44772 4 5C4 5.55229 4.44772 6 5 6L19 6C19.5523 6 20 5.55228 20 5C20 4.44772 19.5523 4 19 4L5 4Z" fill="black"/>
<path d="M15.3191 13.7084L13 11.378L13 19.0044C13 19.5543 12.5561 20 12 20C11.4477 20 11 19.5552 11 19.0044V11.3752L8.67811 13.7084C8.29314 14.0952 7.67241 14.0987 7.28571 13.7101C6.90169 13.3242 6.90728 12.6929 7.28743 12.3109L11.2873 8.29165C11.51 8.06792 11.8115 7.97242 12.101 8.00684C12.3241 8.02694 12.5414 8.12231 12.7099 8.29165L16.7098 12.3109C17.0947 12.6978 17.0982 13.3215 16.7115 13.7101C16.3275 14.096 15.6992 14.0903 15.3191 13.7084Z" fill="black"/>
</svg>
