<svg width="24" height="24" viewBox="0 0 24 24" fill="none" xmlns="http://www.w3.org/2000/svg">
<path d="M9.25 12.5C10.0784 12.5 10.75 11.8284 10.75 11C10.75 10.1716 10.0784 9.5 9.25 9.5C8.42163 9.5 7.75 10.1716 7.75 11C7.75 11.8284 8.42163 12.5 9.25 12.5Z" fill="black"/>
<path d="M14.75 12.5C15.5784 12.5 16.25 11.8284 16.25 11C16.25 10.1716 15.5784 9.5 14.75 9.5C13.9216 9.5 13.25 10.1716 13.25 11C13.25 11.8284 13.9216 12.5 14.75 12.5Z" fill="black"/>
<path fill-rule="evenodd" clip-rule="evenodd" d="M9 4C5.68628 4 3 6.68628 3 10V20.5C3 20.8923 3.22949 21.2485 3.58667 21.4106C3.94409 21.5728 4.36328 21.511 4.65845 21.2526L7.52734 18.7423C8.07422 18.2638 8.77637 18 9.50293 18H16C18.7615 18 21 15.7615 21 13V9C21 6.23853 18.7615 4 16 4H9ZM5 10C5 7.79089 6.79077 6 9 6H16C17.6567 6 19 7.34314 19 9V13C19 14.6569 17.6567 16 16 16H9.50293C8.29175 16 7.12183 16.4396 6.21045 17.2371L5 18.2963V10Z" fill="black"/>
</svg>
