<svg width="24" height="24" viewBox="0 0 24 24" fill="none" xmlns="http://www.w3.org/2000/svg">
<path fill-rule="evenodd" clip-rule="evenodd" d="M5 4C5 2.34315 6.34315 1 8 1H16C17.6569 1 19 2.34315 19 4V20C19 21.6569 17.6569 23 16 23H8C6.34315 23 5 21.6569 5 20V4ZM8 3C7.44772 3 7 3.44772 7 4V20C7 20.5523 7.44772 21 8 21H16C16.5523 21 17 20.5523 17 20V4C17 3.44772 16.5523 3 16 3H15.4142C15.149 3 14.8946 3.10536 14.7071 3.29289L14.2929 3.70711C14.1054 3.89464 13.851 4 13.5858 4H10.4142C10.149 4 9.89464 3.89464 9.70711 3.70711L9.29289 3.29289C9.10536 3.10536 8.851 3 8.58579 3H8Z" fill="black"/>
</svg>
