<svg width="24" height="24" viewBox="0 0 24 24" fill="none" xmlns="http://www.w3.org/2000/svg">
<path d="M8 12C8 13.1046 7.10449 14 6 14C4.89551 14 4 13.1046 4 12C4 10.8954 4.89551 10 6 10C7.10449 10 8 10.8954 8 12Z" fill="black"/>
<path d="M20 12C20 13.1046 19.1045 14 18 14C16.8955 14 16 13.1046 16 12C16 10.8954 16.8955 10 18 10C19.1045 10 20 10.8954 20 12Z" fill="black"/>
<path d="M12 14C13.1045 14 14 13.1046 14 12C14 10.8954 13.1045 10 12 10C10.8955 10 10 10.8954 10 12C10 13.1046 10.8955 14 12 14Z" fill="black"/>
</svg>
