<svg width="24" height="24" viewBox="0 0 24 24" fill="none" xmlns="http://www.w3.org/2000/svg">
<path fill-rule="evenodd" clip-rule="evenodd" d="M15.5 5.5C15.5 6.41858 15.146 7.25464 14.5671 7.87903L17.6541 13.1029C17.925 13.0356 18.2083 13 18.5 13C20.4331 13 22 14.567 22 16.5C22 18.433 20.4331 20 18.5 20C16.9143 20 15.5752 18.9457 15.145 17.5H8.85498C8.4248 18.9457 7.08569 20 5.5 20C3.56689 20 2 18.433 2 16.5C2 14.567 3.56689 13 5.5 13C5.79175 13 6.0752 13.0356 6.34595 13.1029L9.43286 7.87903C8.854 7.25464 8.5 6.41858 8.5 5.5C8.5 3.56702 10.0669 2 12 2C13.9331 2 15.5 3.56702 15.5 5.5ZM13.5 5.5C13.5 6.32837 12.8284 7 12 7C11.1716 7 10.5 6.32837 10.5 5.5C10.5 4.67163 11.1716 4 12 4C12.8284 4 13.5 4.67163 13.5 5.5ZM8.06714 14.1211C8.427 14.5093 8.69995 14.9792 8.85498 15.5H15.145C15.3 14.9792 15.573 14.5093 15.9329 14.1211L12.8459 8.89709C12.5752 8.96436 12.2917 9 12 9C11.7083 9 11.4248 8.96436 11.1541 8.89709L8.06714 14.1211ZM18.5 15C17.6716 15 17 15.6716 17 16.5C17 17.3284 17.6716 18 18.5 18C19.3284 18 20 17.3284 20 16.5C20 15.6716 19.3284 15 18.5 15ZM7 16.5C7 17.3284 6.32837 18 5.5 18C4.67163 18 4 17.3284 4 16.5C4 15.6716 4.67163 15 5.5 15C6.32837 15 7 15.6716 7 16.5Z" fill="black"/>
</svg>
