<svg width="24" height="24" viewBox="0 0 24 24" fill="none" xmlns="http://www.w3.org/2000/svg">
<path d="M19 8C20.6569 8 22 6.65685 22 5C22 3.34315 20.6569 2 19 2C17.3431 2 16 3.34315 16 5C16 6.65685 17.3431 8 19 8Z" fill="black"/>
<path d="M6 8C6 6.89543 6.89543 6 8 6H13C13.5523 6 14 5.55228 14 5C14 4.44772 13.5523 4 13 4H8C5.79086 4 4 5.79086 4 8V16C4 18.2091 5.79086 20 8 20H16C18.2091 20 20 18.2091 20 16V11C20 10.4477 19.5523 10 19 10C18.4477 10 18 10.4477 18 11V16C18 17.1046 17.1046 18 16 18H8C6.89543 18 6 17.1046 6 16V8Z" fill="black"/>
</svg>
