<svg width="24" height="24" viewBox="0 0 24 24" fill="none" xmlns="http://www.w3.org/2000/svg">
<path fill-rule="evenodd" clip-rule="evenodd" d="M13 4C13 3.44772 12.5523 3 12 3C11.4477 3 11 3.44772 11 4L11 9.58581L7.4142 6.00001C7.02368 5.60949 6.39051 5.60949 5.99999 6.00001C5.60946 6.39054 5.60946 7.0237 5.99999 7.41423L9.58576 11L4 11C3.44772 11 3 11.4477 3 12C3 12.5523 3.44772 13 4 13L9.58579 13L6.00001 16.5858C5.60949 16.9763 5.60949 17.6095 6.00001 18C6.39054 18.3905 7.0237 18.3905 7.41423 18L11 14.4142L11 20C11 20.5523 11.4477 21 12 21C12.5523 21 13 20.5523 13 20V14.4142L16.5858 18C16.9763 18.3905 17.6095 18.3905 18 18C18.3905 17.6095 18.3905 16.9763 18 16.5858L14.4142 13L20 13C20.5523 13 21 12.5523 21 12C21 11.4477 20.5523 11 20 11L14.4142 11L18 7.4142C18.3905 7.02367 18.3905 6.39051 18 5.99998C17.6095 5.60946 16.9763 5.60946 16.5858 5.99998L13 9.58578V4Z" fill="black"/>
</svg>
