<svg width="24" height="24" viewBox="0 0 24 24" fill="none" xmlns="http://www.w3.org/2000/svg">
<path fill-rule="evenodd" clip-rule="evenodd" d="M12 21C10.3431 21 9 19.6569 9 18V12C9 10.3431 10.3431 9 12 9H18C19.6569 9 21 10.3431 21 12V18C21 19.6569 19.6569 21 18 21H12ZM11 18C11 18.5523 11.4477 19 12 19H18C18.5523 19 19 18.5523 19 18V12C19 11.4477 18.5523 11 18 11H12C11.4477 11 11 11.4477 11 12V18Z" fill="black"/>
<path d="M6 15H7V13H6C5.44772 13 5 12.5523 5 12V6C5 5.44771 5.44772 5 6 5H12C12.5523 5 13 5.44771 13 6V7H15V6C15 4.34315 13.6569 3 12 3H6C4.34315 3 3 4.34315 3 6V12C3 13.6569 4.34315 15 6 15Z" fill="black"/>
</svg>
