<svg width="24" height="24" viewBox="0 0 24 24" fill="none" xmlns="http://www.w3.org/2000/svg">
<path fill-rule="evenodd" clip-rule="evenodd" d="M7 2C4.23858 2 2 4.23858 2 7V17C2 17.3788 2.214 17.725 2.55279 17.8944C2.89157 18.0638 3.29698 18.0273 3.6 17.8L6.8 15.4C7.14619 15.1404 7.56726 15 8 15H10C10 17.2091 11.7909 19 14 19H16.6667L20.4 21.8C20.703 22.0273 21.1084 22.0638 21.4472 21.8944C21.786 21.725 22 21.3788 22 21V13C22 10.7909 20.2091 9 18 9V7C18 4.23858 15.7614 2 13 2H7ZM16 10V7C16 5.34315 14.6569 4 13 4H7C5.34315 4 4 5.34315 4 7V14.5C4 14.706 4.23519 14.8236 4.4 14.7L5.6 13.8C6.29239 13.2807 7.13452 13 8 13H13C14.6569 13 16 11.6569 16 10ZM12 15H13C15.419 15 17.4367 13.2822 17.9 11H18C19.1046 11 20 11.8954 20 13V18.5C20 18.706 19.7648 18.8236 19.6 18.7L17.6 17.2C17.4269 17.0702 17.2164 17 17 17H14C12.8954 17 12 16.1046 12 15Z" fill="black"/>
</svg>
