<svg width="24" height="24" viewBox="0 0 24 24" fill="none" xmlns="http://www.w3.org/2000/svg">
<path fill-rule="evenodd" clip-rule="evenodd" d="M12 4C10.3431 4 9 5.34315 9 7C9 8.65685 10.3431 10 12 10C13.6569 10 15 8.65685 15 7C15 5.34315 13.6569 4 12 4ZM7 7C7 4.23858 9.23858 2 12 2C14.7614 2 17 4.23858 17 7C17 9.76142 14.7614 12 12 12C9.23858 12 7 9.76142 7 7ZM9 16C7.89543 16 7 16.8954 7 18V20C7 20.5523 6.55228 21 6 21C5.44772 21 5 20.5523 5 20V18C5 15.7909 6.79086 14 9 14H15C17.2091 14 19 15.7909 19 18V20C19 20.5523 18.5523 21 18 21C17.4477 21 17 20.5523 17 20V18C17 16.8954 16.1046 16 15 16H9Z" fill="black"/>
</svg>
