<svg width="24" height="24" viewBox="0 0 24 24" fill="none" xmlns="http://www.w3.org/2000/svg">
<path fill-rule="evenodd" clip-rule="evenodd" d="M17.7544 4.65411C19.3643 4.15106 21 5.3537 21 7.04034V15.9598C21 17.6464 19.3643 18.8491 17.7544 18.346L12.7302 16.7759L11.3091 19.6181C10.8855 20.465 10.0198 21.0001 9.073 21.0001H7.32959C5.51123 21.0001 4.30127 19.1208 5.05371 17.4655L6.28296 14.7612L5.10522 14.3931C3.85278 14.0018 3 12.8419 3 11.5297V11.4704C3 10.1583 3.85278 8.99835 5.10522 8.60699L17.7544 4.65411ZM19 7.04034C19 6.70306 18.6729 6.46246 18.3508 6.56305L17 6.98517V16.015L18.3508 16.4371C18.6729 16.5377 19 16.2971 19 15.9598V7.04034ZM5.70166 10.5159L15 7.61017V15.39L5.70166 12.4842C5.28418 12.3537 5 11.9671 5 11.5297V11.4704C5 11.033 5.28418 10.6464 5.70166 10.5159ZM8.20654 15.3622L6.87427 18.2931C6.72388 18.6242 6.96582 19.0001 7.32959 19.0001H9.073C9.26245 19.0001 9.43555 18.893 9.52026 18.7237L10.7961 16.1716L8.20654 15.3622Z" fill="black"/>
</svg>
