<svg width="24" height="24" viewBox="0 0 24 24" fill="none" xmlns="http://www.w3.org/2000/svg">
<path fill-rule="evenodd" clip-rule="evenodd" d="M5.09888 3C3.94216 3 3 3.93788 3 5.09888V8.90112C3 10.0578 3.93788 11 5.09888 11H8.90112C10.0578 11 11 10.0621 11 8.90112V5.09888C11 3.94216 10.0621 3 8.90112 3H5.09888ZM5 8.90112V5.09888C5 5.04427 5.04492 5 5.09888 5H8.90112C8.95573 5 9 5.04492 9 5.09888V8.90112C9 8.95573 8.95508 9 8.90112 9H5.09888C5.04427 9 5 8.95508 5 8.90112ZM5 15.0989V18.9011C5 18.9551 5.04427 19 5.09888 19H8.90112C8.95508 19 9 18.9557 9 18.9011V15.0989C9 15.0449 8.95573 15 8.90112 15H5.09888C5.04492 15 5 15.0443 5 15.0989ZM5.09888 13C3.94216 13 3 13.9379 3 15.0989V18.9011C3 20.0578 3.93788 21 5.09888 21H8.90112C10.0578 21 11 20.0621 11 18.9011V15.0989C11 13.9422 10.0621 13 8.90112 13H5.09888ZM15 5.09888V8.90112C15 8.95508 15.0443 9 15.0989 9H18.9011C18.9551 9 19 8.95573 19 8.90112V5.09888C19 5.04492 18.9557 5 18.9011 5H15.0989C15.0449 5 15 5.04427 15 5.09888ZM15.0989 3C13.9422 3 13 3.93788 13 5.09888V8.90112C13 10.0578 13.9379 11 15.0989 11H18.9011C20.0578 11 21 10.0621 21 8.90112V5.09888C21 3.94216 20.0621 3 18.9011 3H15.0989ZM13 13.4954C13 13.2218 13.2158 13 13.4954 13H15.5046C15.7782 13 16 13.2158 16 13.4954V15.5046C16 15.7782 15.7842 16 15.5046 16H13.4954C13.2218 16 13 15.7842 13 15.5046V13.4954ZM18.4954 13C18.2158 13 18 13.2218 18 13.4954V15.5046C18 15.7842 18.2218 16 18.4954 16H20.5046C20.7842 16 21 15.7782 21 15.5046V13.4954C21 13.2158 20.7782 13 20.5046 13H18.4954ZM18 18.4954C18 18.2218 18.2158 18 18.4954 18H20.5046C20.7782 18 21 18.2158 21 18.4954V20.5046C21 20.7782 20.7842 21 20.5046 21H18.4954C18.2218 21 18 20.7842 18 20.5046V18.4954ZM13.4954 18C13.2158 18 13 18.2218 13 18.4954V20.5046C13 20.7842 13.2218 21 13.4954 21H15.5046C15.7842 21 16 20.7782 16 20.5046V18.4954C16 18.2158 15.7782 18 15.5046 18H13.4954Z" fill="black"/>
</svg>
