<svg width="24" height="24" viewBox="0 0 24 24" fill="none" xmlns="http://www.w3.org/2000/svg">
<path d="M8.67529 16.4426C11.1009 18.8052 14.9825 18.7856 17.3841 16.3841C19.8053 13.9628 19.8053 10.0372 17.3841 7.61594C14.9628 5.19469 11.0372 5.19469 8.61594 7.61594C7.93204 8.29984 7.4301 9.11462 7.12934 10H10C10.5523 10 11 10.4477 11 11C11 11.5523 10.5523 12 10 12H5C4.44772 12 4 11.5523 4 11V6C4 5.44772 4.44772 5 5 5C5.55228 5 6 5.44772 6 6V8.12276C6.35382 7.4847 6.80154 6.88475 7.34315 6.34315C10.4673 3.21895 15.5327 3.21895 18.6569 6.34315C21.781 9.46734 21.781 14.5327 18.6569 17.6569C15.5327 20.781 10.4673 20.781 7.34315 17.6569L7.37146 17.6285C7.14636 17.4649 7 17.1996 7 16.9C7 16.4029 7.40294 16 7.9 16C8.23008 16 8.51866 16.1777 8.67529 16.4426Z" fill="black"/>
</svg>
