<svg width="24" height="24" viewBox="0 0 24 24" fill="none" xmlns="http://www.w3.org/2000/svg">
<path d="M15.707 3.29288C15.3167 2.90237 14.6833 2.90237 14.293 3.29288C13.9023 3.6835 13.9023 4.31656 14.293 4.70718L16.5857 7.00003H16C9.9248 7.00003 5 11.925 5 18V20C5 20.5523 5.44775 21 6 21C6.55225 21 7 20.5523 7 20V18C7 13.0294 11.0295 9.00003 16 9.00003H16.5857L14.293 11.2929C13.9023 11.6835 13.9023 12.3166 14.293 12.7072C14.6833 13.0977 15.3167 13.0977 15.707 12.7072L19.707 8.70718C20.0977 8.31656 20.0977 7.6835 19.707 7.29288L15.707 3.29288Z" fill="black"/>
</svg>
