<svg width="24" height="24" viewBox="0 0 24 24" fill="none" xmlns="http://www.w3.org/2000/svg">
<path fill-rule="evenodd" clip-rule="evenodd" d="M9.92798 15.856C6.65405 15.856 4 13.2019 4 9.92798C4 6.65405 6.65405 4 9.92798 4C13.2019 4 15.856 6.65405 15.856 9.92798C15.856 11.2083 15.45 12.3937 14.76 13.3627L19.7087 18.3114C20.0945 18.6973 20.0945 19.3228 19.7087 19.7086C19.3228 20.0945 18.6973 20.0945 18.3115 19.7086L13.3628 14.76C12.3938 15.4501 11.2083 15.856 9.92798 15.856ZM9.92798 13.8799C12.1106 13.8799 13.8801 12.1106 13.8801 9.92798C13.8801 7.74536 12.1106 5.97595 9.92798 5.97595C7.74536 5.97595 5.97607 7.74536 5.97607 9.92798C5.97607 12.1106 7.74536 13.8799 9.92798 13.8799Z" fill="black"/>
</svg>
