<svg width="24" height="24" viewBox="0 0 24 24" fill="none" xmlns="http://www.w3.org/2000/svg">
<path d="M12 13C11.4477 13 11 13.4477 11 14V16C11 16.5523 11.4477 17 12 17C12.5523 17 13 16.5523 13 16V14C13 13.4477 12.5523 13 12 13Z" fill="black"/>
<path fill-rule="evenodd" clip-rule="evenodd" d="M12 3C9.79086 3 8 4.79086 8 7V9C6.34315 9 5 10.3431 5 12V18C5 19.6569 6.34315 21 8 21H16C17.6569 21 19 19.6569 19 18V12C19 10.3431 17.6569 9 16 9V7C16 4.79086 14.2091 3 12 3ZM14 7V9H10V7C10 5.89543 10.8954 5 12 5C13.1046 5 14 5.89543 14 7ZM7 12C7 11.4477 7.44772 11 8 11H16C16.5523 11 17 11.4477 17 12V18C17 18.5523 16.5523 19 16 19H8C7.44772 19 7 18.5523 7 18V12Z" fill="black"/>
</svg>
