<svg width="24" height="24" viewBox="0 0 24 24" fill="none" xmlns="http://www.w3.org/2000/svg">
<path fill-rule="evenodd" clip-rule="evenodd" d="M11.2208 4L10.6735 5.64183C10.588 5.96223 10.349 6.22008 10.0347 6.32899C9.81036 6.40671 9.59204 6.49741 9.3806 6.6002C9.08103 6.74583 8.72916 6.73254 8.44191 6.56602L6.89415 5.79214L5.79214 6.89415L6.56602 8.44192C6.73254 8.72917 6.74583 9.08103 6.6002 9.3806C6.49741 9.59204 6.40671 9.81036 6.32899 10.0347C6.22008 10.349 5.96222 10.5881 5.64181 10.6735L4 11.2208V12.7792L5.6418 13.3265C5.96222 13.4119 6.22008 13.651 6.32899 13.9653C6.40671 14.1896 6.49741 14.408 6.6002 14.6194C6.74583 14.919 6.73254 15.2708 6.56602 15.5581L5.79214 17.1058L6.89415 18.2079L8.44192 17.434C8.72917 17.2675 9.08103 17.2542 9.3806 17.3998C9.59204 17.5026 9.81036 17.5933 10.0347 17.671C10.349 17.7799 10.5881 18.0378 10.6735 18.3582L11.2208 20H12.7792L13.3265 18.3582C13.4119 18.0378 13.651 17.7799 13.9653 17.671C14.1896 17.5933 14.408 17.5026 14.6194 17.3998C14.919 17.2542 15.2708 17.2675 15.5581 17.434L17.1058 18.2079L18.2079 17.1058L17.434 15.5581C17.2675 15.2708 17.2542 14.919 17.3998 14.6194C17.5026 14.408 17.5933 14.1896 17.671 13.9653C17.7799 13.651 18.0378 13.4119 18.3582 13.3265L20 12.7792V11.2208L18.3582 10.6735C18.0378 10.5881 17.7799 10.349 17.671 10.0347C17.5933 9.81036 17.5026 9.59204 17.3998 9.3806C17.2542 9.08103 17.2675 8.72917 17.434 8.44192L18.2079 6.89415L17.1058 5.79214L15.5581 6.56602C15.2708 6.73254 14.919 6.74583 14.6194 6.6002C14.408 6.49741 14.1896 6.40671 13.9653 6.32899C13.651 6.22008 13.412 5.96224 13.3265 5.64184L12.7792 4H11.2208ZM12.6653 20.3419C12.6652 20.3422 12.6654 20.3416 12.6653 20.3419V20.3419ZM9.43735 3.02566C9.64153 2.41314 10.2147 2 10.8604 2H13.1396C13.7853 2 14.3585 2.41314 14.5626 3.02566L15.0775 4.57024L16.5338 3.84212C17.1112 3.55338 17.8087 3.66656 18.2652 4.1231L19.8769 5.73477C20.3334 6.19131 20.4466 6.88876 20.1579 7.46624L19.4298 8.92249L20.9743 9.43735C21.5869 9.64153 22 10.2147 22 10.8604V13.1396C22 13.7853 21.5869 14.3585 20.9743 14.5626L19.4298 15.0775L20.1579 16.5338C20.4466 17.1112 20.3334 17.8087 19.8769 18.2652L18.2652 19.8769C17.8087 20.3334 17.1112 20.4466 16.5338 20.1579L15.0775 19.4298L14.5626 20.9743C14.3585 21.5869 13.7853 22 13.1396 22H10.8604C10.2147 22 9.64153 21.5869 9.43735 20.9743L8.92249 19.4298L7.46625 20.1579C6.88876 20.4466 6.19131 20.3334 5.73477 19.8769L4.1231 18.2652C3.66656 17.8087 3.55338 17.1112 3.84212 16.5338L4.57024 15.0775L3.02566 14.5626C2.41315 14.3585 2 13.7853 2 13.1396V10.8604C2 10.2147 2.41315 9.64153 3.02566 9.43736L4.57024 8.92249L3.84212 7.46625C3.55338 6.88876 3.66656 6.19131 4.1231 5.73477L5.73477 4.1231C6.19131 3.66656 6.88876 3.55338 7.46625 3.84212L8.92249 4.57024L9.43735 3.02566Z" fill="black"/>
<path fill-rule="evenodd" clip-rule="evenodd" d="M12 10C10.8954 10 10 10.8954 10 12C10 13.1046 10.8954 14 12 14C13.1046 14 14 13.1046 14 12C14 10.8954 13.1046 10 12 10ZM8 12C8 9.79086 9.79086 8 12 8C14.2091 8 16 9.79086 16 12C16 14.2091 14.2091 16 12 16C9.79086 16 8 14.2091 8 12Z" fill="black"/>
</svg>
