<svg width="24" height="24" viewBox="0 0 24 24" fill="none" xmlns="http://www.w3.org/2000/svg">
<path d="M11 6.41418V13C11 13.5522 11.4478 14 12 14C12.5522 14 13 13.5522 13 13V6.41418L14.293 7.70715C14.6833 8.09766 15.3167 8.09766 15.707 7.70715C16.0977 7.31653 16.0977 6.68347 15.707 6.29285L12.707 3.29285C12.5261 3.11194 12.2761 3 12 3C11.7583 3 11.5369 3.08569 11.364 3.22839C11.3394 3.24878 11.3157 3.27026 11.293 3.29285L8.29297 6.29285C7.90234 6.68347 7.90234 7.31653 8.29297 7.70715C8.68335 8.09766 9.31665 8.09766 9.70703 7.70715L11 6.41418Z" fill="black"/>
<path d="M5 10C5.55225 10 6 10.4478 6 11V17C6 17.5522 6.44775 18 7 18H17C17.5522 18 18 17.5522 18 17V11C18 10.4478 18.4478 10 19 10C19.5522 10 20 10.4478 20 11V17C20 18.6569 18.6567 20 17 20H7C5.34326 20 4 18.6569 4 17V11C4 10.4478 4.44775 10 5 10Z" fill="black"/>
</svg>
