<svg width="24" height="24" viewBox="0 0 24 24" fill="none" xmlns="http://www.w3.org/2000/svg">
<path d="M14.252 14.3066C13.6103 14.7446 12.8356 15.0001 12 15.0001C11.1645 15.0001 10.3897 14.7446 9.74808 14.3066C9.406 14.073 8.93416 14.0659 8.64127 14.3588L8.28771 14.7124C7.99482 15.0053 7.99233 15.4845 8.31932 15.7387C9.33518 16.5286 10.6132 17.0001 12 17.0001C13.3868 17.0001 14.6649 16.5286 15.6807 15.7387C16.0077 15.4844 16.0052 15.0053 15.7123 14.7124L15.3588 14.3588C15.0659 14.0659 14.594 14.073 14.252 14.3066Z" fill="black"/>
<path fill-rule="evenodd" clip-rule="evenodd" d="M12 21C16.9706 21 21 16.9706 21 12C21 11 19 9 17 7C15 5 13 3 12 3C7.02944 3 3 7.02944 3 12C3 16.9706 7.02944 21 12 21ZM18.6754 14.1133C18.8578 13.5363 18.3885 12.9999 17.7902 12.9091C14.3405 12.3859 11.6142 9.65947 11.0909 6.20975C11.0001 5.61148 10.4637 5.14216 9.88675 5.32464C7.05362 6.2207 5 8.87053 5 12C5 15.866 8.13401 19 12 19C15.1295 19 17.7793 16.9464 18.6754 14.1133Z" fill="black"/>
</svg>
