<svg width="24" height="24" viewBox="0 0 24 24" fill="none" xmlns="http://www.w3.org/2000/svg">
<path d="M11.577 11.5411C12.1013 11.5976 12.6256 11.6541 13.2702 11.617C15.017 11.5162 16.0751 10.5877 16 9.20014C15.9236 7.78838 14.5158 6.91873 13.1073 7C10.812 7.13261 9.12408 9.21894 8.93371 11.6039C9.24541 11.5297 9.56306 11.4833 9.88292 11.4654C10.5279 11.4281 11.0524 11.4846 11.577 11.5411Z" fill="black"/>
<path d="M7.03262 14.9308C7.10585 16.2519 8.45434 17.0661 9.8037 16.9898C12.0027 16.8659 13.6196 14.9133 13.8016 12.6813C13.5029 12.7507 13.1986 12.7941 12.8924 12.8109C12.2746 12.8458 11.7722 12.7929 11.2697 12.74C10.7674 12.6872 10.2652 12.6343 9.6477 12.6691C7.97436 12.7634 6.9606 13.6322 7.03262 14.9308Z" fill="black"/>
<path fill-rule="evenodd" clip-rule="evenodd" d="M22 12C22 17.5228 17.5228 22 12 22C9.66667 22 7.33333 22 5 22C3.34315 22 2 20.6569 2 19V12C2 6.47715 6.47715 2 12 2C17.5228 2 22 6.47715 22 12ZM20 12C20 16.4183 16.4183 20 12 20H5C4.44772 20 4 19.5523 4 19L4 12C4 7.58172 7.58172 4 12 4C16.4183 4 20 7.58172 20 12Z" fill="black"/>
</svg>
