<svg width="24" height="24" viewBox="0 0 24 24" fill="none" xmlns="http://www.w3.org/2000/svg">
<path d="M16.2918 12.3191L18.6221 9.99999H10.9956C10.4458 9.99999 10 9.55614 10 8.99999C10 8.44774 10.4448 7.99999 10.9956 7.99999H18.6248L16.2918 5.67809C15.9048 5.29308 15.9014 4.67235 16.29 4.28576C16.6758 3.90172 17.3071 3.90722 17.689 4.28747L21.7083 8.28734C21.9321 8.51 22.0276 8.81151 21.9932 9.10094C21.9732 9.32409 21.8777 9.54137 21.7083 9.70983L17.689 13.7097C17.3023 14.0947 16.6785 14.0981 16.29 13.7114C15.9041 13.3274 15.9097 12.6992 16.2918 12.3191Z" fill="black"/>
<path d="M7.70826 18.3191L5.37794 16H13.0044C13.5542 16 14 15.5561 14 15C14 14.4477 13.5552 14 13.0044 14H5.37525L7.70826 11.6781C8.09522 11.2931 8.09864 10.6724 7.70997 10.2858C7.32423 9.90172 6.69288 9.90722 6.31105 10.2875L2.29176 14.2873C2.06788 14.51 1.97242 14.8115 2.00685 15.1009C2.02687 15.3241 2.12232 15.5414 2.29176 15.7098L6.31105 19.7097C6.69776 20.0947 7.32154 20.0981 7.70997 19.7114C8.09596 19.3274 8.09034 18.6992 7.70826 18.3191Z" fill="black"/>
</svg>
