<svg width="24" height="24" viewBox="0 0 24 24" fill="none" xmlns="http://www.w3.org/2000/svg">
<path fill-rule="evenodd" clip-rule="evenodd" d="M12.0225 2.00003C9.62047 1.99462 7.29677 2.85399 5.47628 4.42099C3.65579 5.988 2.46016 8.15793 2.10802 10.534C1.75588 12.9101 2.27076 15.3335 3.55852 17.3611C4.84627 19.3888 6.82085 20.8852 9.12118 21.5767C11.1617 22.1901 13.3376 22.1337 15.3333 21.4281C15.854 21.244 16.1269 20.6726 15.9428 20.1519C15.7587 19.6312 15.1873 19.3584 14.6666 19.5425C13.0701 20.107 11.3293 20.152 9.69694 19.6613C7.85667 19.1081 6.27701 17.911 5.24681 16.2889C4.21661 14.6668 3.8047 12.728 4.08641 10.8272C4.36812 8.92634 5.32462 7.1904 6.78102 5.93679C8.23741 4.68319 10.0964 3.9957 12.018 4.00002C13.9396 4.00434 15.7954 4.7002 17.2462 5.96035C18.6969 7.22049 19.6456 8.96072 19.9187 10.8628C20.1548 12.5068 19.8737 14.0623 19.1111 15.5419C18.5956 16.5419 17.9807 16.6415 17.7349 16.5866C17.5194 16.5384 17 16.2269 17 15L17 8C17 7.44771 16.5522 7 16 7C15.4477 7 15 7.44772 15 8V8.25C14 7 12.8411 6.5 11.5 6.5C8.46452 6.5 5.99995 8.94558 5.99995 12C5.99995 15.3541 8.50365 17.5 11.5 17.5C12.8883 17.5 14.5108 16.5866 15 15.5C15.1 17.15 16.15 18.2854 17.2987 18.5384C18.7307 18.8585 20.1158 17.9581 20.8889 16.4581C21.8337 14.6249 22.1961 12.6512 21.8984 10.5785C21.557 8.2009 20.3711 6.02561 18.5577 4.45043C16.7443 2.87525 14.4245 2.00543 12.0225 2.00003ZM7.99995 12C7.99995 10.0544 9.56482 8.5 11.5 8.5C13.4351 8.5 15 10.0544 15 12C15 13.9456 13.4351 15.5 11.5 15.5C9.5257 15.5 7.99995 14.1688 7.99995 12Z" fill="black"/>
</svg>
