<svg width="24" height="24" viewBox="0 0 24 24" fill="none" xmlns="http://www.w3.org/2000/svg">
<path fill-rule="evenodd" clip-rule="evenodd" d="M11.991 3C16.968 3 21 7.032 21 12C21 16.968 16.968 21 11.991 21C7.023 21 3 16.968 3 12C3 7.032 7.023 3 11.991 3ZM12 19.2C15.978 19.2 19.2 15.978 19.2 12C19.2 8.02205 15.978 4.80005 12 4.80005C8.02205 4.80005 4.80005 8.02205 4.80005 12C4.80005 15.978 8.02205 19.2 12 19.2ZM15.15 11.1C14.403 11.1 13.8 10.497 13.8 9.75002C13.8 9.00302 14.403 8.40002 15.15 8.40002C15.897 8.40002 16.5 9.00302 16.5 9.75002C16.5 10.497 15.897 11.1 15.15 11.1ZM8.85 11.1C8.103 11.1 7.5 10.497 7.5 9.75002C7.5 9.00302 8.103 8.40002 8.85 8.40002C9.597 8.40002 10.2 9.00302 10.2 9.75002C10.2 10.497 9.597 11.1 8.85 11.1ZM15.4688 14.5657C15.4688 14.5657 13.9637 16.7127 12 16.7127C10.0364 16.7127 8.53121 14.5657 8.53121 14.5657C7.89687 13.8749 8.16595 13.2764 9.10954 13.2764H14.8905C15.8306 13.2764 16.093 13.8536 15.4688 14.5657Z" fill="black"/>
</svg>
