<svg width="24" height="24" viewBox="0 0 24 24" fill="none" xmlns="http://www.w3.org/2000/svg">
<path fill-rule="evenodd" clip-rule="evenodd" d="M6.00684 4C4.34741 4 3 5.34229 3 7.00244V16.9976C3 18.651 4.34839 20 6.00684 20H17.9932C19.6526 20 21 18.6577 21 16.9976V7.00244C21 5.349 19.6516 4 17.9932 4H6.00684ZM5 16.9976V10H19V16.9976C19 17.5511 18.55 18 17.9932 18H6.00684C5.45068 18 5 17.5442 5 16.9976ZM19 8H5V7.00244C5 6.44885 5.44995 6 6.00684 6H17.9932C18.5493 6 19 6.45581 19 7.00244V8ZM16 12C15.4438 12 15 12.4519 15 13.0094V14.9906C15 15.5566 15.4478 16 16 16C16.5562 16 17 15.5481 17 14.9906V13.0094C17 12.4434 16.5522 12 16 12Z" fill="black"/>
</svg>
