<svg width="24" height="24" viewBox="0 0 24 24" fill="none" xmlns="http://www.w3.org/2000/svg">
<path d="M11 8.04871C11 7.49646 11.4478 7.04871 12 7.04871C12.5522 7.04871 13 7.49646 13 8.04871V12.9696C13 12.9696 13 14 12 14C11.1655 14 11 13.1157 11 12.9696V8.04871Z" fill="black"/>
<path d="M11 16C11 15.4478 11.4478 15 12 15C12.5522 15 13 15.4478 13 16C13 16.5522 12.5522 17 12 17C11.4478 17 11 16.5522 11 16Z" fill="black"/>
<path fill-rule="evenodd" clip-rule="evenodd" d="M22 12C22 6.47717 17.5229 2 12 2C6.47705 2 2 6.47717 2 12C2 17.5228 6.47705 22 12 22C17.5229 22 22 17.5228 22 12ZM4 12C4 7.58167 7.58179 4 12 4C16.4182 4 20 7.58167 20 12C20 16.4183 16.4182 20 12 20C7.58179 20 4 16.4183 4 12Z" fill="black"/>
</svg>
