<svg fill="none" height="24" viewBox="0 0 24 24" width="24" xmlns="http://www.w3.org/2000/svg"><path clip-rule="evenodd" d="m17.4225 9.99594c.9999.85526 1.7523 1.81106 2.2288 2.50406-.4765.693-1.2289 1.6488-2.2288 2.5041-1.3258 1.1339-2.97 1.9959-4.9225 1.9959-1.9526 0-3.5967-.862-4.9225-1.9959-.99999-.8553-1.75231-1.8111-2.22881-2.5041.4765-.693 1.22882-1.6488 2.22881-2.50406 1.3258-1.1339 2.9699-1.99594 4.9225-1.99594 1.9525 0 3.5967.86204 4.9225 1.99594zm4.3215 2.05736c.1681.2771.1681.6163 0 .8934-.8908 1.4684-4.0855 6.0533-9.244 6.0533-5.15858 0-8.35319-4.5849-9.24406-6.0533-.16808-.2771-.16808-.6163.00001-.8934.89086-1.4684 4.08547-6.0533 9.24405-6.0533 5.1585 0 8.3532 4.5849 9.244 6.0533zm-9.244 2.9467c1.3807 0 2.5-1.1193 2.5-2.5s-1.1193-2.5-2.5-2.5-2.5 1.1193-2.5 2.5 1.1193 2.5 2.5 2.5z" fill="#000" fill-rule="evenodd"/></svg>